<?xml version="1.0" encoding="UTF-8" standalone="no"?>
<!DOCTYPE svg PUBLIC "-//W3C//DTD SVG 1.1//EN" "http://www.w3.org/Graphics/SVG/1.1/DTD/svg11.dtd">
<svg xmlns="http://www.w3.org/2000/svg" version="1.1" viewBox="0.00 0.00 1024.00 1024.00">
<g stroke-width="5.00" fill="none" stroke-linecap="butt">
<path stroke="#c3b281" vector-effect="non-scaling-stroke" d="
  M 530.61 162.01
  Q 532.21 152.11 526.56 143.69
  C 521.18 135.68 510.71 136.27 504.11 142.11
  C 498.83 146.77 497.63 153.43 497.91 160.29
  A 1.21 1.19 -10.2 0 1 497.07 161.48
  C 489.22 164.01 482.46 166.42 476.13 171.70
  C 471.25 175.77 468.30 181.07 467.07 187.05
  Q 466.16 191.46 466.08 191.67
  A 1.01 1.00 -1.5 0 1 465.48 192.29
  C 448.07 199.01 434.35 211.92 433.97 230.99
  A 1.54 1.54 0.0 0 1 433.18 232.30
  C 429.14 234.51 422.45 237.77 418.18 240.92
  Q 406.92 249.22 399.94 257.72
  C 378.70 283.56 374.52 316.87 386.78 347.85
  Q 392.71 362.85 401.55 373.88
  Q 413.05 388.25 418.64 393.81
  Q 432.61 407.70 444.48 420.01
  Q 461.10 437.23 471.81 457.17
  C 476.49 465.86 478.09 473.34 481.01 483.95
  C 483.80 494.08 491.90 502.31 502.88 500.05
  C 506.29 499.35 511.23 495.76 513.48 492.99
  C 518.38 486.97 523.05 480.75 525.96 473.59
  C 528.27 467.91 530.94 462.27 535.60 459.82
  C 543.94 455.44 552.07 451.96 559.26 446.67
  Q 566.79 441.12 569.97 438.46
  C 606.33 408.06 629.96 366.51 641.14 319.94
  Q 646.45 297.80 647.63 280.54
  Q 647.98 275.41 648.66 268.83
  C 649.54 260.27 645.14 257.31 637.13 256.53
  C 633.85 256.21 626.19 255.50 622.00 254.23
  Q 609.79 250.52 602.44 244.31
  C 592.88 236.22 585.60 229.44 575.54 224.46
  A 1.46 1.46 0.0 0 1 574.73 223.03
  C 575.23 216.83 575.52 211.54 572.84 206.41
  C 569.29 199.61 563.62 196.57 556.55 193.42
  A 0.93 0.93 0.0 0 1 556.00 192.62
  Q 555.93 191.16 555.92 189.29
  Q 555.87 174.99 543.49 168.00
  C 539.19 165.57 535.50 164.69 531.20 163.03
  A 0.93 0.93 0.0 0 1 530.61 162.01"
/>
<path stroke="#c3b281" vector-effect="non-scaling-stroke" d="
  M 572.22 647.37
  A 0.05 0.03 76.7 0 1 572.23 647.34
  Q 608.70 622.73 645.98 607.24
  Q 683.18 591.79 724.55 583.39
  Q 732.08 581.86 731.97 573.78
  Q 731.52 537.48 731.73 429.51
  Q 731.74 425.02 730.82 422.06
  A 2.26 2.15 16.0 0 0 730.31 421.19
  Q 727.32 418.10 724.47 418.61
  C 674.04 427.57 624.52 446.06 584.38 475.95
  Q 554.42 498.25 530.44 528.45
  Q 520.53 540.94 512.68 555.42
  A 0.41 0.41 0.0 0 1 511.96 555.43
  C 479.02 499.28 426.23 457.35 364.91 435.59
  Q 342.07 427.48 309.70 420.30
  Q 302.38 418.68 298.55 419.07
  Q 291.89 419.76 291.84 425.80
  Q 291.36 482.65 291.67 574.74
  Q 291.69 580.05 296.72 581.75
  C 301.28 583.29 305.18 583.91 310.11 585.10
  Q 357.78 596.60 402.52 618.00
  Q 427.12 629.76 448.84 645.47
  A 0.24 0.24 0.0 0 1 448.66 645.90
  Q 446.91 645.59 445.85 645.10
  Q 412.95 629.97 384.44 621.08
  Q 351.44 610.78 318.41 603.87
  C 304.18 600.89 290.65 599.08 275.55 596.58
  A 0.76 0.76 0.0 0 1 274.92 595.83
  Q 274.94 511.15 274.92 467.00
  C 274.91 462.58 274.30 459.38 270.39 457.38
  Q 263.49 453.85 257.78 459.34
  Q 255.89 461.15 255.90 462.76
  Q 256.24 532.67 255.96 602.25
  C 255.93 608.01 255.74 614.86 262.06 615.55
  Q 283.91 617.94 304.03 621.35
  Q 323.35 624.63 345.44 630.56
  Q 386.78 641.67 424.03 658.02
  Q 451.14 669.92 481.97 686.55
  C 491.18 691.51 498.48 696.43 505.97 702.01
  Q 512.99 707.23 519.75 702.24
  C 532.57 692.78 545.39 685.20 559.13 677.51
  C 567.09 673.06 577.07 668.36 585.14 664.26
  Q 594.19 659.66 605.06 655.24
  Q 662.69 631.82 724.02 621.27
  Q 733.52 619.64 741.07 618.70
  Q 755.35 616.92 758.18 616.40
  C 761.60 615.77 767.88 613.88 767.89 609.62
  Q 767.94 584.94 767.94 465.51
  C 767.93 453.16 748.49 453.06 748.45 465.50
  Q 748.23 527.38 748.49 591.25
  Q 748.50 593.50 748.39 596.57
  A 0.97 0.97 0.0 0 1 747.54 597.50
  Q 671.19 607.29 599.50 636.03
  Q 582.82 642.71 572.77 648.17
  A 0.21 0.20 -23.9 0 1 572.48 648.06
  L 572.22 647.37"
/>
<path stroke="#c3b281" vector-effect="non-scaling-stroke" d="
  M 491.58 187.90
  C 498.07 188.38 512.53 187.47 523.74 188.39
  Q 531.64 189.04 533.90 188.96
  A 1.03 1.03 0.0 0 0 534.67 187.29
  C 532.18 184.12 530.28 182.76 526.47 181.60
  Q 522.46 180.39 522.00 180.32
  C 512.88 178.97 498.16 180.06 491.36 187.35
  A 0.33 0.33 0.0 0 0 491.58 187.90"
/>
<path stroke="#c3b281" vector-effect="non-scaling-stroke" d="
  M 458.73 224.45
  A 0.44 0.44 0.0 0 0 459.19 225.10
  Q 474.53 222.34 483.74 220.95
  Q 494.86 219.27 519.66 218.16
  Q 525.42 217.91 535.82 218.56
  Q 549.52 219.42 552.01 219.24
  Q 553.16 219.16 554.62 218.84
  A 0.44 0.43 -19.8 0 0 554.92 218.21
  Q 552.07 212.81 546.30 211.27
  Q 534.12 208.02 521.29 207.74
  Q 499.42 207.26 478.67 213.10
  C 471.89 215.01 461.94 218.99 458.73 224.45"
/>
<path stroke="#c3b281" vector-effect="non-scaling-stroke" d="
  M 500.43 472.18
  A 0.70 0.69 26.3 0 0 501.44 471.84
  Q 506.54 459.03 507.29 445.79
  Q 508.15 430.46 503.31 413.46
  Q 499.12 398.73 496.98 389.80
  Q 492.53 371.25 496.16 353.52
  C 499.91 335.25 511.30 317.38 524.74 303.74
  Q 534.45 293.90 543.27 285.55
  C 555.66 273.82 564.86 263.48 573.84 250.29
  A 1.35 1.35 0.0 0 0 573.35 248.34
  C 563.49 243.15 551.63 240.62 541.21 240.11
  Q 511.83 238.65 485.20 242.72
  Q 469.17 245.18 448.53 251.95
  C 444.69 253.21 441.44 254.91 437.51 256.56
  C 427.84 260.62 419.77 267.09 413.83 275.72
  Q 397.75 299.11 403.27 326.45
  Q 406.49 342.41 416.21 356.52
  Q 427.13 372.39 437.48 382.87
  Q 443.26 388.73 455.97 401.37
  C 475.30 420.58 491.76 444.70 499.68 471.00
  Q 499.95 471.89 500.43 472.18"
/>
<path stroke="#c3b281" vector-effect="non-scaling-stroke" d="
  M 584.22 258.75
  A 0.49 0.48 31.6 0 0 583.44 258.93
  Q 581.00 265.45 579.61 270.31
  Q 578.51 274.16 579.21 275.51
  Q 583.73 284.24 584.12 285.45
  Q 592.75 311.57 588.13 335.49
  Q 584.42 354.73 576.03 369.12
  Q 564.76 388.47 543.64 405.39
  Q 541.65 406.99 530.94 413.90
  C 529.04 415.12 528.85 416.17 528.86 418.26
  Q 528.87 422.41 528.86 438.33
  A 0.70 0.70 0.0 0 0 529.84 438.97
  C 552.37 429.22 570.14 413.24 584.84 393.58
  C 609.62 360.45 623.00 320.33 626.70 278.71
  A 0.75 0.74 -82.4 0 0 626.10 277.91
  Q 621.76 277.14 616.53 275.92
  Q 598.33 271.68 584.22 258.75"
/>
<path stroke="#c3b281" vector-effect="non-scaling-stroke" d="
  M 530.32 344.95
  Q 530.59 345.04 536.56 346.78
  Q 543.77 348.89 549.67 354.22
  Q 553.01 357.23 554.15 358.81
  A 1.27 1.27 0.0 0 0 556.22 358.79
  C 559.36 354.24 558.14 348.12 554.28 344.22
  C 549.59 339.49 544.69 338.06 537.27 337.64
  Q 531.55 337.31 529.15 342.08
  A 2.06 2.06 0.0 0 0 530.32 344.95"
/>
<path stroke="#c3b281" vector-effect="non-scaling-stroke" d="
  M 518.72 370.78
  Q 530.87 375.48 532.37 375.86
  Q 534.70 376.46 535.89 374.85
  C 538.11 371.83 536.73 368.34 534.04 366.03
  Q 529.26 361.91 521.16 360.66
  A 1.63 1.63 0.0 0 0 519.44 361.59
  Q 517.63 365.59 518.05 369.89
  A 1.06 1.06 0.0 0 0 518.72 370.78"
/>
<path stroke="#c3b281" vector-effect="non-scaling-stroke" d="
  M 501.88 665.40
  Q 502.01 590.14 501.94 587.77
  Q 501.77 582.09 501.08 580.44
  C 494.16 564.06 484.12 549.06 471.95 534.28
  Q 464.43 525.14 455.95 516.74
  Q 409.75 470.98 347.73 450.58
  Q 331.70 445.31 312.53 440.73
  A 0.77 0.77 0.0 0 0 311.59 441.48
  L 311.59 563.92
  A 1.71 1.70 -87.4 0 0 313.14 565.62
  Q 315.25 565.82 317.41 566.40
  Q 345.84 574.07 368.66 582.08
  Q 425.41 602.01 472.88 639.86
  Q 487.67 651.65 501.17 665.69
  A 0.41 0.41 0.0 0 0 501.88 665.40"
/>
<path stroke="#c3b281" vector-effect="non-scaling-stroke" d="
  M 712.62 440.75
  C 692.66 445.42 672.53 451.29 653.33 459.57
  C 633.70 468.04 616.40 477.62 600.68 489.21
  Q 570.73 511.28 547.38 540.37
  Q 532.49 558.91 523.33 579.06
  Q 521.87 582.27 521.82 585.52
  C 521.43 609.83 521.75 633.53 522.16 665.42
  A 0.33 0.32 -23.3 0 0 522.72 665.64
  C 524.20 664.13 525.08 662.51 527.02 660.71
  C 558.21 631.62 594.08 607.59 633.36 591.13
  Q 661.42 579.37 690.49 571.27
  Q 695.80 569.79 711.44 565.88
  A 2.06 2.05 -7.1 0 0 713.00 563.89
  L 713.00 441.05
  A 0.31 0.31 0.0 0 0 712.62 440.75"
/>
</g>
<path fill="#ffffff" d="
  M 1024.00 0.00
  L 1024.00 1024.00
  L 0.00 1024.00
  L 0.00 0.00
  L 1024.00 0.00
  Z
  M 530.61 162.01
  Q 532.21 152.11 526.56 143.69
  C 521.18 135.68 510.71 136.27 504.11 142.11
  C 498.83 146.77 497.63 153.43 497.91 160.29
  A 1.21 1.19 -10.2 0 1 497.07 161.48
  C 489.22 164.01 482.46 166.42 476.13 171.70
  C 471.25 175.77 468.30 181.07 467.07 187.05
  Q 466.16 191.46 466.08 191.67
  A 1.01 1.00 -1.5 0 1 465.48 192.29
  C 448.07 199.01 434.35 211.92 433.97 230.99
  A 1.54 1.54 0.0 0 1 433.18 232.30
  C 429.14 234.51 422.45 237.77 418.18 240.92
  Q 406.92 249.22 399.94 257.72
  C 378.70 283.56 374.52 316.87 386.78 347.85
  Q 392.71 362.85 401.55 373.88
  Q 413.05 388.25 418.64 393.81
  Q 432.61 407.70 444.48 420.01
  Q 461.10 437.23 471.81 457.17
  C 476.49 465.86 478.09 473.34 481.01 483.95
  C 483.80 494.08 491.90 502.31 502.88 500.05
  C 506.29 499.35 511.23 495.76 513.48 492.99
  C 518.38 486.97 523.05 480.75 525.96 473.59
  C 528.27 467.91 530.94 462.27 535.60 459.82
  C 543.94 455.44 552.07 451.96 559.26 446.67
  Q 566.79 441.12 569.97 438.46
  C 606.33 408.06 629.96 366.51 641.14 319.94
  Q 646.45 297.80 647.63 280.54
  Q 647.98 275.41 648.66 268.83
  C 649.54 260.27 645.14 257.31 637.13 256.53
  C 633.85 256.21 626.19 255.50 622.00 254.23
  Q 609.79 250.52 602.44 244.31
  C 592.88 236.22 585.60 229.44 575.54 224.46
  A 1.46 1.46 0.0 0 1 574.73 223.03
  C 575.23 216.83 575.52 211.54 572.84 206.41
  C 569.29 199.61 563.62 196.57 556.55 193.42
  A 0.93 0.93 0.0 0 1 556.00 192.62
  Q 555.93 191.16 555.92 189.29
  Q 555.87 174.99 543.49 168.00
  C 539.19 165.57 535.50 164.69 531.20 163.03
  A 0.93 0.93 0.0 0 1 530.61 162.01
  Z
  M 572.22 647.37
  A 0.05 0.03 76.7 0 1 572.23 647.34
  Q 608.70 622.73 645.98 607.24
  Q 683.18 591.79 724.55 583.39
  Q 732.08 581.86 731.97 573.78
  Q 731.52 537.48 731.73 429.51
  Q 731.74 425.02 730.82 422.06
  A 2.26 2.15 16.0 0 0 730.31 421.19
  Q 727.32 418.10 724.47 418.61
  C 674.04 427.57 624.52 446.06 584.38 475.95
  Q 554.42 498.25 530.44 528.45
  Q 520.53 540.94 512.68 555.42
  A 0.41 0.41 0.0 0 1 511.96 555.43
  C 479.02 499.28 426.23 457.35 364.91 435.59
  Q 342.07 427.48 309.70 420.30
  Q 302.38 418.68 298.55 419.07
  Q 291.89 419.76 291.84 425.80
  Q 291.36 482.65 291.67 574.74
  Q 291.69 580.05 296.72 581.75
  C 301.28 583.29 305.18 583.91 310.11 585.10
  Q 357.78 596.60 402.52 618.00
  Q 427.12 629.76 448.84 645.47
  A 0.24 0.24 0.0 0 1 448.66 645.90
  Q 446.91 645.59 445.85 645.10
  Q 412.95 629.97 384.44 621.08
  Q 351.44 610.78 318.41 603.87
  C 304.18 600.89 290.65 599.08 275.55 596.58
  A 0.76 0.76 0.0 0 1 274.92 595.83
  Q 274.94 511.15 274.92 467.00
  C 274.91 462.58 274.30 459.38 270.39 457.38
  Q 263.49 453.85 257.78 459.34
  Q 255.89 461.15 255.90 462.76
  Q 256.24 532.67 255.96 602.25
  C 255.93 608.01 255.74 614.86 262.06 615.55
  Q 283.91 617.94 304.03 621.35
  Q 323.35 624.63 345.44 630.56
  Q 386.78 641.67 424.03 658.02
  Q 451.14 669.92 481.97 686.55
  C 491.18 691.51 498.48 696.43 505.97 702.01
  Q 512.99 707.23 519.75 702.24
  C 532.57 692.78 545.39 685.20 559.13 677.51
  C 567.09 673.06 577.07 668.36 585.14 664.26
  Q 594.19 659.66 605.06 655.24
  Q 662.69 631.82 724.02 621.27
  Q 733.52 619.64 741.07 618.70
  Q 755.35 616.92 758.18 616.40
  C 761.60 615.77 767.88 613.88 767.89 609.62
  Q 767.94 584.94 767.94 465.51
  C 767.93 453.16 748.49 453.06 748.45 465.50
  Q 748.23 527.38 748.49 591.25
  Q 748.50 593.50 748.39 596.57
  A 0.97 0.97 0.0 0 1 747.54 597.50
  Q 671.19 607.29 599.50 636.03
  Q 582.82 642.71 572.77 648.17
  A 0.21 0.20 -23.9 0 1 572.48 648.06
  L 572.22 647.37
  Z"
/>
<path fill="#866502" d="
  M 531.20 163.03
  C 535.50 164.69 539.19 165.57 543.49 168.00
  Q 555.87 174.99 555.92 189.29
  Q 555.93 191.16 556.00 192.62
  A 0.93 0.93 0.0 0 0 556.55 193.42
  C 563.62 196.57 569.29 199.61 572.84 206.41
  C 575.52 211.54 575.23 216.83 574.73 223.03
  A 1.46 1.46 0.0 0 0 575.54 224.46
  C 585.60 229.44 592.88 236.22 602.44 244.31
  Q 609.79 250.52 622.00 254.23
  C 626.19 255.50 633.85 256.21 637.13 256.53
  C 645.14 257.31 649.54 260.27 648.66 268.83
  Q 647.98 275.41 647.63 280.54
  Q 646.45 297.80 641.14 319.94
  C 629.96 366.51 606.33 408.06 569.97 438.46
  Q 566.79 441.12 559.26 446.67
  C 552.07 451.96 543.94 455.44 535.60 459.82
  C 530.94 462.27 528.27 467.91 525.96 473.59
  C 523.05 480.75 518.38 486.97 513.48 492.99
  C 511.23 495.76 506.29 499.35 502.88 500.05
  C 491.90 502.31 483.80 494.08 481.01 483.95
  C 478.09 473.34 476.49 465.86 471.81 457.17
  Q 461.10 437.23 444.48 420.01
  Q 432.61 407.70 418.64 393.81
  Q 413.05 388.25 401.55 373.88
  Q 392.71 362.85 386.78 347.85
  C 374.52 316.87 378.70 283.56 399.94 257.72
  Q 406.92 249.22 418.18 240.92
  C 422.45 237.77 429.14 234.51 433.18 232.30
  A 1.54 1.54 0.0 0 0 433.97 230.99
  C 434.35 211.92 448.07 199.01 465.48 192.29
  A 1.01 1.00 -1.5 0 0 466.08 191.67
  Q 466.16 191.46 467.07 187.05
  C 468.30 181.07 471.25 175.77 476.13 171.70
  C 482.46 166.42 489.22 164.01 497.07 161.48
  A 1.21 1.19 -10.2 0 0 497.91 160.29
  C 497.63 153.43 498.83 146.77 504.11 142.11
  C 510.71 136.27 521.18 135.68 526.56 143.69
  Q 532.21 152.11 530.61 162.01
  A 0.93 0.93 0.0 0 0 531.20 163.03
  Z
  M 491.58 187.90
  C 498.07 188.38 512.53 187.47 523.74 188.39
  Q 531.64 189.04 533.90 188.96
  A 1.03 1.03 0.0 0 0 534.67 187.29
  C 532.18 184.12 530.28 182.76 526.47 181.60
  Q 522.46 180.39 522.00 180.32
  C 512.88 178.97 498.16 180.06 491.36 187.35
  A 0.33 0.33 0.0 0 0 491.58 187.90
  Z
  M 458.73 224.45
  A 0.44 0.44 0.0 0 0 459.19 225.10
  Q 474.53 222.34 483.74 220.95
  Q 494.86 219.27 519.66 218.16
  Q 525.42 217.91 535.82 218.56
  Q 549.52 219.42 552.01 219.24
  Q 553.16 219.16 554.62 218.84
  A 0.44 0.43 -19.8 0 0 554.92 218.21
  Q 552.07 212.81 546.30 211.27
  Q 534.12 208.02 521.29 207.74
  Q 499.42 207.26 478.67 213.10
  C 471.89 215.01 461.94 218.99 458.73 224.45
  Z
  M 500.43 472.18
  A 0.70 0.69 26.3 0 0 501.44 471.84
  Q 506.54 459.03 507.29 445.79
  Q 508.15 430.46 503.31 413.46
  Q 499.12 398.73 496.98 389.80
  Q 492.53 371.25 496.16 353.52
  C 499.91 335.25 511.30 317.38 524.74 303.74
  Q 534.45 293.90 543.27 285.55
  C 555.66 273.82 564.86 263.48 573.84 250.29
  A 1.35 1.35 0.0 0 0 573.35 248.34
  C 563.49 243.15 551.63 240.62 541.21 240.11
  Q 511.83 238.65 485.20 242.72
  Q 469.17 245.18 448.53 251.95
  C 444.69 253.21 441.44 254.91 437.51 256.56
  C 427.84 260.62 419.77 267.09 413.83 275.72
  Q 397.75 299.11 403.27 326.45
  Q 406.49 342.41 416.21 356.52
  Q 427.13 372.39 437.48 382.87
  Q 443.26 388.73 455.97 401.37
  C 475.30 420.58 491.76 444.70 499.68 471.00
  Q 499.95 471.89 500.43 472.18
  Z
  M 584.22 258.75
  A 0.49 0.48 31.6 0 0 583.44 258.93
  Q 581.00 265.45 579.61 270.31
  Q 578.51 274.16 579.21 275.51
  Q 583.73 284.24 584.12 285.45
  Q 592.75 311.57 588.13 335.49
  Q 584.42 354.73 576.03 369.12
  Q 564.76 388.47 543.64 405.39
  Q 541.65 406.99 530.94 413.90
  C 529.04 415.12 528.85 416.17 528.86 418.26
  Q 528.87 422.41 528.86 438.33
  A 0.70 0.70 0.0 0 0 529.84 438.97
  C 552.37 429.22 570.14 413.24 584.84 393.58
  C 609.62 360.45 623.00 320.33 626.70 278.71
  A 0.75 0.74 -82.4 0 0 626.10 277.91
  Q 621.76 277.14 616.53 275.92
  Q 598.33 271.68 584.22 258.75
  Z
  M 530.32 344.95
  Q 530.59 345.04 536.56 346.78
  Q 543.77 348.89 549.67 354.22
  Q 553.01 357.23 554.15 358.81
  A 1.27 1.27 0.0 0 0 556.22 358.79
  C 559.36 354.24 558.14 348.12 554.28 344.22
  C 549.59 339.49 544.69 338.06 537.27 337.64
  Q 531.55 337.31 529.15 342.08
  A 2.06 2.06 0.0 0 0 530.32 344.95
  Z
  M 518.72 370.78
  Q 530.87 375.48 532.37 375.86
  Q 534.70 376.46 535.89 374.85
  C 538.11 371.83 536.73 368.34 534.04 366.03
  Q 529.26 361.91 521.16 360.66
  A 1.63 1.63 0.0 0 0 519.44 361.59
  Q 517.63 365.59 518.05 369.89
  A 1.06 1.06 0.0 0 0 518.72 370.78
  Z"
/>
<path fill="#ffffff" d="
  M 491.58 187.90
  A 0.33 0.33 0.0 0 1 491.36 187.35
  C 498.16 180.06 512.88 178.97 522.00 180.32
  Q 522.46 180.39 526.47 181.60
  C 530.28 182.76 532.18 184.12 534.67 187.29
  A 1.03 1.03 0.0 0 1 533.90 188.96
  Q 531.64 189.04 523.74 188.39
  C 512.53 187.47 498.07 188.38 491.58 187.90
  Z"
/>
<path fill="#ffffff" d="
  M 458.73 224.45
  C 461.94 218.99 471.89 215.01 478.67 213.10
  Q 499.42 207.26 521.29 207.74
  Q 534.12 208.02 546.30 211.27
  Q 552.07 212.81 554.92 218.21
  A 0.44 0.43 -19.8 0 1 554.62 218.84
  Q 553.16 219.16 552.01 219.24
  Q 549.52 219.42 535.82 218.56
  Q 525.42 217.91 519.66 218.16
  Q 494.86 219.27 483.74 220.95
  Q 474.53 222.34 459.19 225.10
  A 0.44 0.44 0.0 0 1 458.73 224.45
  Z"
/>
<path fill="#ffffff" d="
  M 500.43 472.18
  Q 499.95 471.89 499.68 471.00
  C 491.76 444.70 475.30 420.58 455.97 401.37
  Q 443.26 388.73 437.48 382.87
  Q 427.13 372.39 416.21 356.52
  Q 406.49 342.41 403.27 326.45
  Q 397.75 299.11 413.83 275.72
  C 419.77 267.09 427.84 260.62 437.51 256.56
  C 441.44 254.91 444.69 253.21 448.53 251.95
  Q 469.17 245.18 485.20 242.72
  Q 511.83 238.65 541.21 240.11
  C 551.63 240.62 563.49 243.15 573.35 248.34
  A 1.35 1.35 0.0 0 1 573.84 250.29
  C 564.86 263.48 555.66 273.82 543.27 285.55
  Q 534.45 293.90 524.74 303.74
  C 511.30 317.38 499.91 335.25 496.16 353.52
  Q 492.53 371.25 496.98 389.80
  Q 499.12 398.73 503.31 413.46
  Q 508.15 430.46 507.29 445.79
  Q 506.54 459.03 501.44 471.84
  A 0.70 0.69 26.3 0 1 500.43 472.18
  Z"
/>
<path fill="#ffffff" d="
  M 584.22 258.75
  Q 598.33 271.68 616.53 275.92
  Q 621.76 277.14 626.10 277.91
  A 0.75 0.74 -82.4 0 1 626.70 278.71
  C 623.00 320.33 609.62 360.45 584.84 393.58
  C 570.14 413.24 552.37 429.22 529.84 438.97
  A 0.70 0.70 0.0 0 1 528.86 438.33
  Q 528.87 422.41 528.86 418.26
  C 528.85 416.17 529.04 415.12 530.94 413.90
  Q 541.65 406.99 543.64 405.39
  Q 564.76 388.47 576.03 369.12
  Q 584.42 354.73 588.13 335.49
  Q 592.75 311.57 584.12 285.45
  Q 583.73 284.24 579.21 275.51
  Q 578.51 274.16 579.61 270.31
  Q 581.00 265.45 583.44 258.93
  A 0.49 0.48 31.6 0 1 584.22 258.75
  Z"
/>
<path fill="#ffffff" d="
  M 530.32 344.95
  A 2.06 2.06 0.0 0 1 529.15 342.08
  Q 531.55 337.31 537.27 337.64
  C 544.69 338.06 549.59 339.49 554.28 344.22
  C 558.14 348.12 559.36 354.24 556.22 358.79
  A 1.27 1.27 0.0 0 1 554.15 358.81
  Q 553.01 357.23 549.67 354.22
  Q 543.77 348.89 536.56 346.78
  Q 530.59 345.04 530.32 344.95
  Z"
/>
<path fill="#ffffff" d="
  M 518.05 369.89
  Q 517.63 365.59 519.44 361.59
  A 1.63 1.63 0.0 0 1 521.16 360.66
  Q 529.26 361.91 534.04 366.03
  C 536.73 368.34 538.11 371.83 535.89 374.85
  Q 534.70 376.46 532.37 375.86
  Q 530.87 375.48 518.72 370.78
  A 1.06 1.06 0.0 0 1 518.05 369.89
  Z"
/>
<path fill="#866502" d="
  M 572.22 647.37
  L 572.48 648.06
  A 0.21 0.20 -23.9 0 0 572.77 648.17
  Q 582.82 642.71 599.50 636.03
  Q 671.19 607.29 747.54 597.50
  A 0.97 0.97 0.0 0 0 748.39 596.57
  Q 748.50 593.50 748.49 591.25
  Q 748.23 527.38 748.45 465.50
  C 748.49 453.06 767.93 453.16 767.94 465.51
  Q 767.94 584.94 767.89 609.62
  C 767.88 613.88 761.60 615.77 758.18 616.40
  Q 755.35 616.92 741.07 618.70
  Q 733.52 619.64 724.02 621.27
  Q 662.69 631.82 605.06 655.24
  Q 594.19 659.66 585.14 664.26
  C 577.07 668.36 567.09 673.06 559.13 677.51
  C 545.39 685.20 532.57 692.78 519.75 702.24
  Q 512.99 707.23 505.97 702.01
  C 498.48 696.43 491.18 691.51 481.97 686.55
  Q 451.14 669.92 424.03 658.02
  Q 386.78 641.67 345.44 630.56
  Q 323.35 624.63 304.03 621.35
  Q 283.91 617.94 262.06 615.55
  C 255.74 614.86 255.93 608.01 255.96 602.25
  Q 256.24 532.67 255.90 462.76
  Q 255.89 461.15 257.78 459.34
  Q 263.49 453.85 270.39 457.38
  C 274.30 459.38 274.91 462.58 274.92 467.00
  Q 274.94 511.15 274.92 595.83
  A 0.76 0.76 0.0 0 0 275.55 596.58
  C 290.65 599.08 304.18 600.89 318.41 603.87
  Q 351.44 610.78 384.44 621.08
  Q 412.95 629.97 445.85 645.10
  Q 446.91 645.59 448.66 645.90
  A 0.24 0.24 0.0 0 0 448.84 645.47
  Q 427.12 629.76 402.52 618.00
  Q 357.78 596.60 310.11 585.10
  C 305.18 583.91 301.28 583.29 296.72 581.75
  Q 291.69 580.05 291.67 574.74
  Q 291.36 482.65 291.84 425.80
  Q 291.89 419.76 298.55 419.07
  Q 302.38 418.68 309.70 420.30
  Q 342.07 427.48 364.91 435.59
  C 426.23 457.35 479.02 499.28 511.96 555.43
  A 0.41 0.41 0.0 0 0 512.68 555.42
  Q 520.53 540.94 530.44 528.45
  Q 554.42 498.25 584.38 475.95
  C 624.52 446.06 674.04 427.57 724.47 418.61
  Q 727.32 418.10 730.31 421.19
  A 2.26 2.15 16.0 0 1 730.82 422.06
  Q 731.74 425.02 731.73 429.51
  Q 731.52 537.48 731.97 573.78
  Q 732.08 581.86 724.55 583.39
  Q 683.18 591.79 645.98 607.24
  Q 608.70 622.73 572.23 647.34
  A 0.05 0.03 76.7 0 0 572.22 647.37
  Z
  M 501.88 665.40
  Q 502.01 590.14 501.94 587.77
  Q 501.77 582.09 501.08 580.44
  C 494.16 564.06 484.12 549.06 471.95 534.28
  Q 464.43 525.14 455.95 516.74
  Q 409.75 470.98 347.73 450.58
  Q 331.70 445.31 312.53 440.73
  A 0.77 0.77 0.0 0 0 311.59 441.48
  L 311.59 563.92
  A 1.71 1.70 -87.4 0 0 313.14 565.62
  Q 315.25 565.82 317.41 566.40
  Q 345.84 574.07 368.66 582.08
  Q 425.41 602.01 472.88 639.86
  Q 487.67 651.65 501.17 665.69
  A 0.41 0.41 0.0 0 0 501.88 665.40
  Z
  M 712.62 440.75
  C 692.66 445.42 672.53 451.29 653.33 459.57
  C 633.70 468.04 616.40 477.62 600.68 489.21
  Q 570.73 511.28 547.38 540.37
  Q 532.49 558.91 523.33 579.06
  Q 521.87 582.27 521.82 585.52
  C 521.43 609.83 521.75 633.53 522.16 665.42
  A 0.33 0.32 -23.3 0 0 522.72 665.64
  C 524.20 664.13 525.08 662.51 527.02 660.71
  C 558.21 631.62 594.08 607.59 633.36 591.13
  Q 661.42 579.37 690.49 571.27
  Q 695.80 569.79 711.44 565.88
  A 2.06 2.05 -7.1 0 0 713.00 563.89
  L 713.00 441.05
  A 0.31 0.31 0.0 0 0 712.62 440.75
  Z"
/>
<path fill="#ffffff" d="
  M 501.88 665.40
  A 0.41 0.41 0.0 0 1 501.17 665.69
  Q 487.67 651.65 472.88 639.86
  Q 425.41 602.01 368.66 582.08
  Q 345.84 574.07 317.41 566.40
  Q 315.25 565.82 313.14 565.62
  A 1.71 1.70 -87.4 0 1 311.59 563.92
  L 311.59 441.48
  A 0.77 0.77 0.0 0 1 312.53 440.73
  Q 331.70 445.31 347.73 450.58
  Q 409.75 470.98 455.95 516.74
  Q 464.43 525.14 471.95 534.28
  C 484.12 549.06 494.16 564.06 501.08 580.44
  Q 501.77 582.09 501.94 587.77
  Q 502.01 590.14 501.88 665.40
  Z"
/>
<path fill="#ffffff" d="
  M 712.62 440.75
  A 0.31 0.31 0.0 0 1 713.00 441.05
  L 713.00 563.89
  A 2.06 2.05 -7.1 0 1 711.44 565.88
  Q 695.80 569.79 690.49 571.27
  Q 661.42 579.37 633.36 591.13
  C 594.08 607.59 558.21 631.62 527.02 660.71
  C 525.08 662.51 524.20 664.13 522.72 665.64
  A 0.33 0.32 -23.3 0 1 522.16 665.42
  C 521.75 633.53 521.43 609.83 521.82 585.52
  Q 521.87 582.27 523.33 579.06
  Q 532.49 558.91 547.38 540.37
  Q 570.73 511.28 600.68 489.21
  C 616.40 477.62 633.70 468.04 653.33 459.57
  C 672.53 451.29 692.66 445.42 712.62 440.75
  Z"
/>
</svg>
