<?xml version="1.0" encoding="UTF-8"?>
<svg version="1.1" xmlns="http://www.w3.org/2000/svg" width="259" height="194">
<style>
.bird {
    animation: color-change 5s infinite alternate;
  }
  @keyframes color-change {
    0% { fill: #000000; }    /* Deep blue */
    25% { fill: #ff0000; }   /* Bright red */
    50% { fill: #000000; }   /* Black */
    100% { fill: #8b5cf6; }  /* Purple */
  }
  .wing-left {
    animation: flap-left 0.2s infinite alternate ease-in-out;
    transform-origin: center;
  }
  
  .wing-right {
    animation: flap-right 0.2s infinite alternate ease-in-out;
    transform-origin: center;
  }
  
  @keyframes flap-left {
    0% { transform: rotate(0deg); }
    100% { transform: rotate(10deg); }
  }
  
  @keyframes flap-right {
    0% { transform: rotate(0deg); }
    100% { transform: rotate(-10deg); }
  }
</style>
<g class="wing-left">
<path d="M0 0 C2.8158305 2.0917598 5.06919575 4.08540057 7.28515625 6.8203125 C21.44008605 24.04577726 45.50408797 34.43500814 66.31640625 40.6171875 C67.17572754 40.87338867 68.03504883 41.12958984 68.92041016 41.39355469 C70.5480224 41.86652523 72.18173806 42.31917557 73.82177734 42.74707031 C79.34603911 44.31716174 81.73322908 46.25405535 85 51 C86.5547669 54.10953379 86.28644437 56.56266761 86 60 C81.15065232 69.90953657 70.56220045 75.73046594 61.65893555 81.57885742 C44.82000954 92.66569152 26.6821075 107.18615014 21.453125 127.6328125 C20.72883165 131.41662086 20.30970306 135.15968203 20 139 C19.67 139 19.34 139 19 139 C18.37078497 126.205961 19.99079047 116.01447212 27 105 C26.67 104.67 26.34 104.34 26 104 C21.13257116 107.72808994 17.73697829 111.7149373 14.1875 116.6875 C9.46130691 123.16116813 4.53251241 129.18806777 -1 135 C-1.33 134.34 -1.66 133.68 -2 133 C2.54345188 121.24872632 9.32839072 110.11440619 20 103 C20 102.01 20 101.02 20 100 C18.14418615 101.41454951 16.29007467 102.83121576 14.4375 104.25 C13.85758301 104.69384033 13.27766602 105.13768066 12.68017578 105.5949707 C8.83108998 108.55434642 5.04151966 111.57705297 1.27661133 114.64257812 C-16.39563251 129 -16.39563251 129 -22 129 C-13.36472184 115.05070451 -1.59636817 106.71025566 13.20703125 99.97265625 C15.17554267 99.12636877 15.17554267 99.12636877 16 97 C14.43487671 97.52170776 14.43487671 97.52170776 12.83813477 98.05395508 C-15.67358398 107.55786133 -15.67358398 107.55786133 -17.81002808 108.26675415 C-19.35569396 108.78427361 -20.89852417 109.31029993 -22.4392395 109.84237671 C-23.23667572 110.11570831 -24.03411194 110.38903992 -24.85571289 110.6706543 C-25.57650528 110.9205864 -26.29729767 111.17051849 -27.03993225 111.42802429 C-29.41476162 112.12103335 -31.5412196 112.23794649 -34 112 C-23.03019221 100.13102764 -4.05380411 97.80674812 11 94 C10.07703125 94.144375 9.1540625 94.28875 8.203125 94.4375 C0.30219297 95.56174329 -7.45277977 96.21399224 -15.4375 96.25 C-16.25250977 96.25902344 -17.06751953 96.26804687 -17.90722656 96.27734375 C-25.03169036 96.24257613 -32.36929115 95.61217784 -38.4375 91.5625 C-39.07558594 91.15128906 -39.71367188 90.74007812 -40.37109375 90.31640625 C-42 89 -42 89 -44 86 C-41.13444648 87.12885442 -38.31334952 88.30654039 -35.5 89.5625 C-22.20088457 95.02463669 -4.48554668 92.8839708 9 89 C10.64162109 88.56494141 10.64162109 88.56494141 12.31640625 88.12109375 C24.84864697 84.58484165 38.28371824 79.0095235 46 68 C45.41992188 67.82984375 44.83984375 67.6596875 44.2421875 67.484375 C33.41094056 64.12418618 27.12112231 57.4915101 20 49 C20.99 48.01 20.99 48.01 22 47 C21.12988281 46.23429687 21.12988281 46.23429687 20.2421875 45.453125 C14.00617083 39.6493075 10.36384056 33.79619517 7 26 C8.98 26.33 10.96 26.66 13 27 C12.56429687 26.57332031 12.12859375 26.14664063 11.6796875 25.70703125 C5.75468546 19.48706158 0.25455149 11.40145845 -0.16015625 2.6015625 C-0.10730469 1.74304687 -0.05445313 0.88453125 0 0 Z " fill="#080808" transform="translate(89,40)"/>
</g>
<g class="wing-right">
<path d="M0 0 C2.58981227 2.35857903 4.21712361 4.87085329 6 7.875 C15.07902471 22.31370106 27.1995549 33.39227016 40.63647461 43.73022461 C47.11539757 48.76481877 53.06120253 54.34729078 59 60 C61.19214269 58.97832264 63.12157321 57.91212124 65.0859375 56.4921875 C72.15984237 51.49458235 78.48053466 50.78141976 87 52 C91.06735763 53.81578465 93.02879829 56.02661658 95.6875 59.4375 C99.43016126 64.0932502 104.54816933 65.89493371 110 68 C110 68.33 110 68.66 110 69 C109.41992188 69.02578125 108.83984375 69.0515625 108.2421875 69.078125 C101.6050021 69.56003285 97.67346907 70.90951545 93.171875 76.11328125 C88.88524148 81.67409126 85.66263991 87.44501891 82.5 93.6875 C77.73662926 103.00846713 72.23443176 110.45598225 62 114 C55.46537153 115.85089875 48.91330498 117.04020583 42.1875 117.9375 C36.69197997 118.70926795 32.83580027 120.35399608 28 123 C27.34 122.67 26.68 122.34 26 122 C34.614387 115.32218062 43.85122441 112.9700234 54.3125 110.5 C63.40317147 108.26321636 71.44579656 104.43343744 76.69921875 96.40234375 C80.65458192 89.13328649 82.23289645 82.20007239 83 74 C77.01097932 72.76313703 71.31656724 73.18891118 65.265625 73.55078125 C60.72729256 73.32402137 58.01018372 71.30228962 54.27539062 68.86987305 C49.99505761 66.42629295 45.5488337 64.65128678 40.9765625 62.828125 C40.0625769 62.4576152 39.14859131 62.08710541 38.20690918 61.70536804 C34.37828029 60.15383536 30.54877075 58.6079862 26.69677734 57.11523438 C23.85918276 56.01016139 21.04298731 54.86090929 18.2265625 53.703125 C17.35987946 53.37983215 16.49319641 53.05653931 15.60025024 52.72344971 C10.68339105 50.65368974 8.50133105 48.89548317 6.42333984 43.89355469 C5.45288925 41.02635287 5 39.04435116 5 36 C6.98 36.66 8.96 37.32 11 38 C10.45730469 36.98421875 9.91460937 35.9684375 9.35546875 34.921875 C3.35920166 23.4792778 -0.78677002 13.17111301 0 0 Z " fill="#050505" transform="translate(111,11)"/>
</g>
<path d="M0 0 C0.99 0.495 0.99 0.495 2 1 C-0.03977583 2.58581978 -2.08173308 4.16868908 -4.125 5.75 C-4.97964844 6.41515625 -4.97964844 6.41515625 -5.8515625 7.09375 C-8.62734061 9.23866945 -11.39035621 11.25489849 -14.33203125 13.17578125 C-17.29778551 15.2036103 -18.26383332 16.90509417 -20 20 C-21.62449243 21.70779973 -23.29220027 23.37550757 -25 25 C-25.598125 25.639375 -26.19625 26.27875 -26.8125 26.9375 C-28.73456339 28.7497312 -30.60830505 30.13917455 -32.765625 31.64453125 C-37.03863935 34.82960571 -39.90732551 38.40751246 -42.9375 42.75 C-47.61097128 49.22417619 -52.48762628 55.20922357 -58 61 C-58.33 60.34 -58.66 59.68 -59 59 C-54.45654812 47.24872632 -47.67160928 36.11440619 -37 29 C-37 28.01 -37 27.02 -37 26 C-38.85581385 27.41454951 -40.70992533 28.83121576 -42.5625 30.25 C-43.14241699 30.69384033 -43.72233398 31.13768066 -44.31982422 31.5949707 C-48.16891002 34.55434642 -51.95848034 37.57705297 -55.72338867 40.64257812 C-73.39563251 55 -73.39563251 55 -79 55 C-70.36472184 41.05070451 -58.59636817 32.71025566 -43.79296875 25.97265625 C-41.82445733 25.12636877 -41.82445733 25.12636877 -41 23 C-42.04341553 23.34780518 -43.08683105 23.69561035 -44.16186523 24.05395508 C-72.67358398 33.55786133 -72.67358398 33.55786133 -74.81002808 34.26675415 C-76.35569396 34.78427361 -77.89852417 35.31029993 -79.4392395 35.84237671 C-80.23667572 36.11570831 -81.03411194 36.38903992 -81.85571289 36.6706543 C-82.57650528 36.9205864 -83.29729767 37.17051849 -84.03993225 37.42802429 C-86.41476162 38.12103335 -88.5412196 38.23794649 -91 38 C-81.7094437 27.94792269 -67.52483343 25.58358931 -54.7121582 22.35986328 C-53.61605225 22.08126465 -52.51994629 21.80266602 -51.390625 21.515625 C-50.40094727 21.27102539 -49.41126953 21.02642578 -48.39160156 20.77441406 C-45.84778189 20.15104083 -45.84778189 20.15104083 -44 18 C-42.27026367 17.38085938 -42.27026367 17.38085938 -40.16796875 16.84375 C-39.37898193 16.63073242 -38.58999512 16.41771484 -37.77709961 16.19824219 C-36.92253174 15.96782227 -36.06796387 15.73740234 -35.1875 15.5 C-22.97275194 12.04496166 -10.60600003 7.07066669 0 0 Z " fill="#050505" transform="translate(111,11)"/>
<path d="M0 0 C0.66 0.33 1.32 0.66 2 1 C1.030625 1.57105469 0.06125 2.14210937 -0.9375 2.73046875 C-9.14255639 7.6584647 -16.69436475 12.96074764 -24.04443359 19.09033203 C-28.6287282 22.90926054 -33.30378028 26.54716469 -38.125 30.0625 C-38.72836182 30.50327881 -39.33172363 30.94405762 -39.95336914 31.39819336 C-43.57793196 34.02403291 -47.26120295 36.53966699 -51 39 C-51.66 38.67 -52.32 38.34 -53 38 C-42.99734116 21.84185879 -28.85878651 14.26198245 -12.25 5.875 C-11.08235107 5.28187012 -9.91470215 4.68874023 -8.71166992 4.07763672 C-7.6157251 3.53381348 -6.51978027 2.98999023 -5.390625 2.4296875 C-4.40094727 1.93710449 -3.41126953 1.44452148 -2.39160156 0.93701172 C-1.60237305 0.62779785 -0.81314453 0.31858398 0 0 Z " fill="#0D0D0D" transform="translate(120,131)"/>
<path d="M0 0 C-15.06471942 5.86504489 -30.17646979 11.53225202 -45.5 16.6875 C-46.14479309 16.90718445 -46.78958618 17.1268689 -47.45391846 17.35321045 C-49.28939285 17.97685719 -51.12900209 18.58829393 -52.96875 19.19921875 C-54.01482422 19.54815186 -55.06089844 19.89708496 -56.13867188 20.2565918 C-58.89984354 20.97397812 -61.16384935 21.15035251 -64 21 C-54.37342263 10.49313904 -38.63517852 8.0292835 -25.3125 4.6875 C-22.72635533 4.02692573 -20.14101933 3.36325132 -17.55570984 2.69941711 C-15.9626489 2.29163484 -14.36893502 1.88639243 -12.77449036 1.48405457 C-3.09732721 -0.96123948 -3.09732721 -0.96123948 0 0 Z " fill="#0B0B0B" transform="translate(119,131)"/>
<path d="M0 0 C0.66 0.33 1.32 0.66 2 1 C1.57332031 1.38027344 1.14664063 1.76054687 0.70703125 2.15234375 C-4.88009694 7.41691609 -9.3873612 13.30039707 -13.98657227 19.41210938 C-17.58850805 24.18609948 -21.26861802 28.86617447 -25.125 33.4375 C-25.57399658 33.97463623 -26.02299316 34.51177246 -26.4855957 35.06518555 C-28.54804961 37.48622384 -30.32882761 39.21921841 -33 41 C-27.93434952 22.60369037 -14.75865164 10.99455749 0 0 Z " fill="#0D0D0D" transform="translate(120,134)"/>
<path d="M0 0 C1.155 0.268125 2.31 0.53625 3.5 0.8125 C5.33225278 1.2133053 7.16577556 1.60831666 9 2 C10.175625 2.25265625 11.35125 2.5053125 12.5625 2.765625 C22.36844296 4.7837673 32.00209112 5.64116416 42 6 C42 6.66 42 7.32 42 8 C11.06971374 9.38998106 11.06971374 9.38998106 0 0 Z " fill="#ECECEC" transform="translate(114,79)"/>
<path d="M0 0 C0 0.66 0 1.32 0 2 C-6.34244413 4.51019465 -11.82414331 5.44961405 -18.625 5.3125 C-19.43195313 5.31572266 -20.23890625 5.31894531 -21.0703125 5.32226562 C-26.07469977 5.2775836 -30.25610052 4.59613776 -35 3 C-35 2.67 -35 2.34 -35 2 C-34.17274414 1.97494385 -33.34548828 1.9498877 -32.49316406 1.92407227 C-28.74528808 1.80803651 -24.99765875 1.685344 -21.25 1.5625 C-19.29707031 1.50352539 -19.29707031 1.50352539 -17.3046875 1.44335938 C-16.05429688 1.40146484 -14.80390625 1.35957031 -13.515625 1.31640625 C-12.36352539 1.27974854 -11.21142578 1.24309082 -10.02441406 1.20532227 C-6.5635902 0.97037289 -3.46369548 0 0 0 Z " fill="#C4C4C4" transform="translate(158,88)"/>
<path d="M0 0 C10.91796875 3.63932292 21.8359375 7.27864583 32.75390625 10.91796875 C33.95345947 11.31781982 35.1530127 11.7176709 36.38891602 12.12963867 C37.25057373 12.41685791 38.11223145 12.70407715 39 13 C29.67919705 15.75519794 17.56637798 9.6437835 9.0625 5.875 C8.27536621 5.52638916 7.48823242 5.17777832 6.67724609 4.81860352 C1.13478009 2.26956018 1.13478009 2.26956018 0 0 Z " fill="#D0D0D0" transform="translate(111,69)"/>
<path d="M0 0 C-1.52763464 4.08596252 -4.11084191 5.79826179 -7.625 8.25 C-8.62789062 8.95640625 -9.63078125 9.6628125 -10.6640625 10.390625 C-11.82035156 11.18726563 -11.82035156 11.18726563 -13 12 C-13.33 11.34 -13.66 10.68 -14 10 C-11.42215154 7.35247996 -9.08351902 5.05567935 -6 3 C-12.435 5.97 -12.435 5.97 -19 9 C-19.33 8.01 -19.66 7.02 -20 6 C-17.60824639 4.98914564 -15.21238415 3.99120797 -12.8125 3 C-11.80219727 2.57074219 -11.80219727 2.57074219 -10.77148438 2.1328125 C-7.05006206 0.60793701 -4.03528592 -0.37610432 0 0 Z " fill="#E2E2E2" transform="translate(124,130)"/>
<path d="M0 0 C4.11833853 1.49270634 7.65767591 3.50352078 11.375 5.8125 C12.23001099 6.34327148 12.23001099 6.34327148 13.10229492 6.88476562 C17.18901832 9.44122328 21.13411193 12.12306004 25 15 C24.01 15.495 24.01 15.495 23 16 C20.53993811 14.72185049 18.22493551 13.39637451 15.875 11.9375 C15.20009521 11.525 14.52519043 11.1125 13.82983398 10.6875 C9.00661916 7.70686814 4.39701303 4.58939839 0 1 C0 0.67 0 0.34 0 0 Z " fill="#D1D1D1" transform="translate(131,56)"/>
<path d="M0 0 C0 4.09076171 -1.6249456 5.42305734 -4.1875 8.5625 C-5.35345703 10.01849609 -5.35345703 10.01849609 -6.54296875 11.50390625 C-8.99835754 13.99833143 -10.68728023 15.00559566 -14 16 C-12.43805642 12.36953654 -10.21034833 9.78806795 -7.5625 6.875 C-6.78003906 6.00617188 -5.99757813 5.13734375 -5.19140625 4.2421875 C-3 2 -3 2 0 0 Z " fill="#BABABA" transform="translate(127,129)"/>
<path d="M0 0 C1.27875 0.28875 2.5575 0.5775 3.875 0.875 C8.90171927 1.99382464 13.94685368 3.0083596 19 4 C18.67 4.99 18.34 5.98 18 7 C11.53287812 5.83805848 5.90377651 3.8751252 0 1 C0 0.67 0 0.34 0 0 Z " fill="#C8C8C8" transform="translate(114,79)"/>
<path d="M0 0 C0.66 0.33 1.32 0.66 2 1 C-1.3 3.64 -4.6 6.28 -8 9 C-8.33 8.34 -8.66 7.68 -9 7 C-3.51752022 1.21293801 -3.51752022 1.21293801 0 0 Z " fill="#E7E7E7" transform="translate(119,133)"/>
<path d="M0 0 C0.66 0.33 1.32 0.66 2 1 C0.57277341 2.1998278 -0.86715776 3.3845576 -2.3125 4.5625 C-3.51326172 5.55443359 -3.51326172 5.55443359 -4.73828125 6.56640625 C-5.85783203 7.27603516 -5.85783203 7.27603516 -7 8 C-7.99 7.67 -8.98 7.34 -10 7 C-7.20283196 3.70921407 -3.80471422 1.93694542 0 0 Z " fill="#CBCBCB" transform="translate(146,114)"/>
<path d="M0 0 C3.5786304 1.65167557 6.74820188 3.78286492 10 6 C9.01 6.495 9.01 6.495 8 7 C5.8359375 6.00390625 5.8359375 6.00390625 3.375 4.5625 C2.55773437 4.08941406 1.74046875 3.61632812 0.8984375 3.12890625 C0.27195313 2.75636719 -0.35453125 2.38382812 -1 2 C-0.67 1.34 -0.34 0.68 0 0 Z " fill="#D7D7D7" transform="translate(146,65)"/>
<path d="M0 0 C-0.33 0.99 -0.66 1.98 -1 3 C-3.5625 4.1875 -3.5625 4.1875 -6 5 C-6.33 4.01 -6.66 3.02 -7 2 C-2.25 0 -2.25 0 0 0 Z " fill="#D9D9D9" transform="translate(111,134)"/>
<path d="M0 0 C0 2 0 2 -2.5 4.625 C-3.325 5.40875 -4.15 6.1925 -5 7 C-5.66 6.67 -6.32 6.34 -7 6 C-3.61538462 0 -3.61538462 0 0 0 Z " fill="#CACACA" transform="translate(141,129)"/>
<path d="M0 0 C2.64 0 5.28 0 8 0 C7.67 0.99 7.34 1.98 7 3 C4.0625 2.625 4.0625 2.625 1 2 C0.67 1.34 0.34 0.68 0 0 Z " fill="#E1E1E1" transform="translate(131,84)"/>
</svg> 