<?xml version="1.0" encoding="UTF-8" standalone="no"?>
<!DOCTYPE svg PUBLIC "-//W3C//DTD SVG 1.1//EN" "http://www.w3.org/Graphics/SVG/1.1/DTD/svg11.dtd">
<svg xmlns="http://www.w3.org/2000/svg" version="1.1" viewBox="0.00 0.00 1024.00 1024.00">
<g stroke-width="5.00" fill="none" stroke-linecap="butt">
<path stroke="#e9d5aa" vector-effect="non-scaling-stroke" d="
  M 530.49 162.41
  Q 532.58 152.61 526.74 143.94
  C 521.64 136.37 511.76 136.26 504.86 141.41
  C 500.22 144.86 497.94 151.46 497.96 157.25
  Q 497.97 160.24 497.81 160.88
  A 0.81 0.81 0.0 0 1 497.23 161.46
  Q 484.26 165.04 476.66 171.16
  Q 468.89 177.41 467.02 187.25
  Q 466.88 188.01 466.26 191.68
  A 0.76 0.74 -5.4 0 1 465.76 192.27
  C 448.51 198.54 434.49 211.79 434.08 230.84
  A 1.96 1.96 0.0 0 1 432.96 232.58
  C 402.26 247.08 381.29 275.43 380.05 309.93
  C 379.19 334.09 388.61 358.04 404.03 376.94
  Q 413.98 389.14 422.60 397.81
  Q 441.88 417.20 446.22 421.73
  Q 461.09 437.26 471.62 456.60
  C 475.62 463.93 477.73 471.16 479.84 479.72
  C 481.75 487.43 484.49 493.78 490.06 497.48
  C 494.60 500.49 501.30 501.93 506.12 498.87
  C 509.43 496.78 512.20 494.65 514.71 491.43
  Q 522.24 481.74 524.30 477.28
  C 528.09 469.07 529.46 462.81 536.99 458.99
  C 544.14 455.36 552.01 451.50 557.76 447.66
  Q 570.01 439.49 580.82 428.81
  Q 599.45 410.38 612.17 389.92
  Q 634.50 354.01 643.02 311.49
  Q 647.03 291.47 647.88 277.69
  C 648.52 267.43 652.04 257.94 637.84 256.70
  Q 632.05 256.20 627.97 255.57
  Q 612.86 253.23 601.28 243.46
  C 592.11 235.72 585.29 229.01 575.40 224.52
  A 1.28 1.27 17.9 0 1 574.67 223.11
  Q 575.77 217.37 574.64 211.42
  C 572.94 202.53 564.77 196.46 556.54 193.56
  A 1.06 1.04 -78.7 0 1 555.85 192.50
  Q 557.26 173.56 539.93 166.29
  Q 535.31 164.35 530.83 163.00
  A 0.50 0.50 0.0 0 1 530.49 162.41"
/>
<path stroke="#e9d5aa" vector-effect="non-scaling-stroke" d="
  M 572.10 647.86
  Q 572.45 647.01 573.38 646.39
  Q 607.02 623.75 642.68 608.43
  Q 653.82 603.64 668.99 598.47
  Q 695.41 589.47 725.53 583.12
  Q 731.93 581.77 731.89 575.59
  Q 731.43 513.05 731.70 429.00
  C 731.73 421.08 729.95 417.54 721.18 419.16
  C 689.97 424.91 660.71 434.05 631.65 447.69
  C 588.99 467.72 552.80 498.08 524.43 536.44
  Q 518.07 545.04 512.71 555.56
  A 0.49 0.49 0.0 0 1 511.85 555.57
  Q 506.10 544.70 498.05 533.91
  Q 442.34 459.27 352.58 431.42
  Q 330.25 424.49 311.19 420.65
  C 304.71 419.35 291.87 415.46 291.83 426.53
  Q 291.43 540.23 291.76 574.75
  Q 291.80 579.70 296.21 581.56
  C 300.24 583.26 305.14 583.81 309.80 584.92
  C 341.55 592.46 373.02 603.56 402.80 618.02
  Q 428.00 630.25 448.95 645.39
  A 0.34 0.34 0.0 0 1 448.67 646.00
  Q 446.44 645.49 444.11 644.38
  Q 417.11 631.39 382.58 620.47
  Q 332.00 604.49 280.89 597.42
  Q 278.18 597.05 275.70 596.87
  A 0.83 0.82 -88.2 0 1 274.93 596.04
  Q 274.96 548.29 274.92 467.29
  C 274.92 462.43 274.41 459.04 270.01 457.15
  Q 262.66 453.99 257.19 459.97
  A 4.84 4.81 66.2 0 0 255.93 463.25
  Q 256.24 532.89 256.00 604.51
  Q 255.99 610.01 256.80 611.45
  Q 258.93 615.25 262.22 615.59
  Q 304.47 620.02 339.89 628.94
  Q 397.16 643.36 452.62 671.14
  Q 478.96 684.34 488.40 690.12
  C 495.42 694.41 499.06 696.97 505.86 702.01
  Q 513.09 707.36 520.13 701.90
  C 531.95 692.72 543.99 686.10 557.68 678.17
  Q 559.62 677.04 583.05 665.28
  Q 596.94 658.30 608.99 653.62
  Q 633.20 644.20 647.65 639.68
  Q 676.51 630.66 708.79 624.07
  Q 732.70 619.20 755.76 616.75
  C 760.43 616.26 767.92 614.73 767.92 609.29
  Q 767.93 513.62 767.97 465.26
  C 767.98 453.15 748.57 453.13 748.53 465.00
  Q 748.27 534.55 748.58 589.25
  Q 748.61 592.89 748.49 596.38
  A 1.05 1.05 0.0 0 1 747.57 597.39
  Q 695.48 603.82 645.35 619.63
  C 619.96 627.63 595.60 636.63 572.46 648.20
  A 0.27 0.26 88.0 0 1 572.10 647.86"
/>
<path stroke="#e9d5aa" vector-effect="non-scaling-stroke" d="
  M 492.07 188.02
  Q 496.18 188.08 512.54 188.05
  C 520.40 188.03 524.83 188.37 533.46 189.05
  A 1.17 1.17 0.0 0 0 534.59 187.35
  Q 532.74 183.69 528.31 182.17
  Q 514.16 177.31 499.09 182.52
  Q 495.28 183.83 491.72 187.10
  A 0.53 0.53 0.0 0 0 492.07 188.02"
/>
<path stroke="#e9d5aa" vector-effect="non-scaling-stroke" d="
  M 458.81 224.91
  C 469.30 223.28 477.64 221.38 488.13 220.16
  Q 508.08 217.83 526.63 217.90
  C 535.58 217.93 545.52 219.37 554.19 219.12
  A 0.69 0.69 0.0 0 0 554.78 218.10
  Q 551.93 212.86 546.14 211.30
  Q 533.99 208.03 521.52 207.85
  Q 501.41 207.55 482.81 212.11
  Q 473.87 214.30 465.65 218.43
  Q 461.20 220.66 458.62 224.61
  A 0.20 0.19 -77.8 0 0 458.81 224.91"
/>
<path stroke="#e9d5aa" vector-effect="non-scaling-stroke" d="
  M 500.87 472.22
  Q 501.37 472.09 501.69 471.19
  Q 503.91 464.81 505.66 457.47
  C 508.13 447.07 507.57 436.17 506.00 425.40
  Q 505.22 420.11 501.70 407.98
  C 497.65 394.05 494.38 381.35 494.29 370.01
  Q 494.11 348.69 505.18 329.41
  Q 513.33 315.22 524.31 304.05
  Q 531.74 296.50 543.69 285.04
  Q 555.28 273.91 559.85 268.50
  Q 567.07 259.95 573.82 250.13
  A 1.18 1.17 30.2 0 0 573.36 248.41
  Q 561.14 242.45 547.28 240.87
  Q 539.51 239.99 539.25 240.01
  Q 538.18 240.06 526.58 239.81
  Q 521.01 239.69 513.93 239.95
  Q 486.51 240.95 459.60 248.41
  Q 445.40 252.35 433.46 258.50
  C 417.88 266.53 407.71 281.91 403.56 298.80
  Q 400.32 312.03 403.16 325.57
  Q 406.13 339.76 411.91 349.43
  Q 422.05 366.39 436.33 381.50
  Q 441.05 386.51 451.03 396.18
  C 472.77 417.25 491.88 442.60 500.21 471.88
  Q 500.35 472.36 500.87 472.22"
/>
<path stroke="#e9d5aa" vector-effect="non-scaling-stroke" d="
  M 528.92 438.49
  A 0.60 0.60 0.0 0 0 529.76 439.04
  C 549.38 430.63 565.41 417.32 579.24 400.54
  Q 604.46 369.97 616.49 330.74
  Q 624.20 305.60 626.66 278.74
  A 0.70 0.69 -82.4 0 0 626.09 277.99
  C 618.88 276.65 611.54 275.15 605.13 272.39
  Q 593.68 267.47 584.24 258.93
  A 0.45 0.45 0.0 0 0 583.51 259.12
  Q 582.04 263.44 579.97 269.22
  Q 579.15 271.47 579.11 274.51
  A 1.94 1.87 -59.6 0 0 579.34 275.46
  Q 583.20 282.81 583.95 284.79
  C 592.17 306.53 591.83 332.26 583.39 353.46
  Q 578.24 366.41 574.78 371.83
  Q 558.00 398.12 530.68 414.37
  A 3.61 3.61 0.0 0 0 528.92 417.47
  L 528.92 438.49"
/>
<path stroke="#e9d5aa" vector-effect="non-scaling-stroke" d="
  M 529.84 344.76
  Q 545.20 347.39 554.48 358.99
  A 0.95 0.94 44.5 0 0 555.96 358.98
  C 559.59 354.29 557.95 347.84 553.96 344.01
  Q 546.10 336.46 535.17 337.85
  C 531.45 338.32 529.28 340.41 529.11 343.85
  A 0.88 0.88 0.0 0 0 529.84 344.76"
/>
<path stroke="#e9d5aa" vector-effect="non-scaling-stroke" d="
  M 517.96 369.97
  A 0.53 0.53 0.0 0 0 518.29 370.41
  L 532.82 375.96
  A 2.32 2.31 30.8 0 0 535.40 375.31
  Q 537.95 372.37 536.32 368.88
  C 534.07 364.09 525.85 361.37 521.06 360.70
  A 1.59 1.58 14.3 0 0 519.36 361.70
  Q 517.62 366.19 517.96 369.97"
/>
<path stroke="#e9d5aa" vector-effect="non-scaling-stroke" d="
  M 501.85 665.69
  L 501.85 583.55
  A 3.19 3.16 -53.5 0 0 501.72 582.65
  Q 500.94 580.02 499.25 576.51
  Q 491.22 559.79 482.71 548.28
  C 478.22 542.21 471.17 532.89 464.55 525.73
  Q 415.43 472.58 345.98 450.04
  Q 330.95 445.17 312.53 440.66
  A 0.65 0.65 0.0 0 0 311.73 441.29
  L 311.73 564.02
  A 1.55 1.54 3.8 0 0 313.07 565.55
  Q 316.05 565.96 320.81 567.18
  Q 353.11 575.48 382.90 587.37
  Q 437.98 609.36 482.85 648.10
  C 489.59 653.92 495.07 659.49 501.42 665.86
  A 0.25 0.25 0.0 0 0 501.85 665.69"
/>
<path stroke="#e9d5aa" vector-effect="non-scaling-stroke" d="
  M 523.04 665.36
  C 523.89 664.46 524.95 662.49 526.16 661.36
  Q 574.83 615.81 632.03 591.52
  Q 670.29 575.27 711.46 565.75
  A 1.95 1.94 -6.6 0 0 712.97 563.86
  L 712.97 441.67
  A 0.82 0.81 -6.5 0 0 711.97 440.88
  C 672.18 450.03 633.75 464.73 600.64 489.25
  Q 570.52 511.56 547.51 540.22
  Q 533.01 558.29 523.17 579.41
  Q 521.90 582.14 521.87 585.56
  Q 521.60 622.64 522.11 653.00
  Q 522.22 660.09 522.08 664.96
  A 0.56 0.56 0.0 0 0 523.04 665.36"
/>
</g>
<path fill="#f7f7f7" d="
  M 1024.00 0.00
  L 1024.00 1024.00
  L 0.00 1024.00
  L 0.00 0.00
  L 1024.00 0.00
  Z
  M 530.49 162.41
  Q 532.58 152.61 526.74 143.94
  C 521.64 136.37 511.76 136.26 504.86 141.41
  C 500.22 144.86 497.94 151.46 497.96 157.25
  Q 497.97 160.24 497.81 160.88
  A 0.81 0.81 0.0 0 1 497.23 161.46
  Q 484.26 165.04 476.66 171.16
  Q 468.89 177.41 467.02 187.25
  Q 466.88 188.01 466.26 191.68
  A 0.76 0.74 -5.4 0 1 465.76 192.27
  C 448.51 198.54 434.49 211.79 434.08 230.84
  A 1.96 1.96 0.0 0 1 432.96 232.58
  C 402.26 247.08 381.29 275.43 380.05 309.93
  C 379.19 334.09 388.61 358.04 404.03 376.94
  Q 413.98 389.14 422.60 397.81
  Q 441.88 417.20 446.22 421.73
  Q 461.09 437.26 471.62 456.60
  C 475.62 463.93 477.73 471.16 479.84 479.72
  C 481.75 487.43 484.49 493.78 490.06 497.48
  C 494.60 500.49 501.30 501.93 506.12 498.87
  C 509.43 496.78 512.20 494.65 514.71 491.43
  Q 522.24 481.74 524.30 477.28
  C 528.09 469.07 529.46 462.81 536.99 458.99
  C 544.14 455.36 552.01 451.50 557.76 447.66
  Q 570.01 439.49 580.82 428.81
  Q 599.45 410.38 612.17 389.92
  Q 634.50 354.01 643.02 311.49
  Q 647.03 291.47 647.88 277.69
  C 648.52 267.43 652.04 257.94 637.84 256.70
  Q 632.05 256.20 627.97 255.57
  Q 612.86 253.23 601.28 243.46
  C 592.11 235.72 585.29 229.01 575.40 224.52
  A 1.28 1.27 17.9 0 1 574.67 223.11
  Q 575.77 217.37 574.64 211.42
  C 572.94 202.53 564.77 196.46 556.54 193.56
  A 1.06 1.04 -78.7 0 1 555.85 192.50
  Q 557.26 173.56 539.93 166.29
  Q 535.31 164.35 530.83 163.00
  A 0.50 0.50 0.0 0 1 530.49 162.41
  Z
  M 572.10 647.86
  Q 572.45 647.01 573.38 646.39
  Q 607.02 623.75 642.68 608.43
  Q 653.82 603.64 668.99 598.47
  Q 695.41 589.47 725.53 583.12
  Q 731.93 581.77 731.89 575.59
  Q 731.43 513.05 731.70 429.00
  C 731.73 421.08 729.95 417.54 721.18 419.16
  C 689.97 424.91 660.71 434.05 631.65 447.69
  C 588.99 467.72 552.80 498.08 524.43 536.44
  Q 518.07 545.04 512.71 555.56
  A 0.49 0.49 0.0 0 1 511.85 555.57
  Q 506.10 544.70 498.05 533.91
  Q 442.34 459.27 352.58 431.42
  Q 330.25 424.49 311.19 420.65
  C 304.71 419.35 291.87 415.46 291.83 426.53
  Q 291.43 540.23 291.76 574.75
  Q 291.80 579.70 296.21 581.56
  C 300.24 583.26 305.14 583.81 309.80 584.92
  C 341.55 592.46 373.02 603.56 402.80 618.02
  Q 428.00 630.25 448.95 645.39
  A 0.34 0.34 0.0 0 1 448.67 646.00
  Q 446.44 645.49 444.11 644.38
  Q 417.11 631.39 382.58 620.47
  Q 332.00 604.49 280.89 597.42
  Q 278.18 597.05 275.70 596.87
  A 0.83 0.82 -88.2 0 1 274.93 596.04
  Q 274.96 548.29 274.92 467.29
  C 274.92 462.43 274.41 459.04 270.01 457.15
  Q 262.66 453.99 257.19 459.97
  A 4.84 4.81 66.2 0 0 255.93 463.25
  Q 256.24 532.89 256.00 604.51
  Q 255.99 610.01 256.80 611.45
  Q 258.93 615.25 262.22 615.59
  Q 304.47 620.02 339.89 628.94
  Q 397.16 643.36 452.62 671.14
  Q 478.96 684.34 488.40 690.12
  C 495.42 694.41 499.06 696.97 505.86 702.01
  Q 513.09 707.36 520.13 701.90
  C 531.95 692.72 543.99 686.10 557.68 678.17
  Q 559.62 677.04 583.05 665.28
  Q 596.94 658.30 608.99 653.62
  Q 633.20 644.20 647.65 639.68
  Q 676.51 630.66 708.79 624.07
  Q 732.70 619.20 755.76 616.75
  C 760.43 616.26 767.92 614.73 767.92 609.29
  Q 767.93 513.62 767.97 465.26
  C 767.98 453.15 748.57 453.13 748.53 465.00
  Q 748.27 534.55 748.58 589.25
  Q 748.61 592.89 748.49 596.38
  A 1.05 1.05 0.0 0 1 747.57 597.39
  Q 695.48 603.82 645.35 619.63
  C 619.96 627.63 595.60 636.63 572.46 648.20
  A 0.27 0.26 88.0 0 1 572.10 647.86
  Z"
/>
<path fill="#dab25d" d="
  M 530.49 162.41
  A 0.50 0.50 0.0 0 0 530.83 163.00
  Q 535.31 164.35 539.93 166.29
  Q 557.26 173.56 555.85 192.50
  A 1.06 1.04 -78.7 0 0 556.54 193.56
  C 564.77 196.46 572.94 202.53 574.64 211.42
  Q 575.77 217.37 574.67 223.11
  A 1.28 1.27 17.9 0 0 575.40 224.52
  C 585.29 229.01 592.11 235.72 601.28 243.46
  Q 612.86 253.23 627.97 255.57
  Q 632.05 256.20 637.84 256.70
  C 652.04 257.94 648.52 267.43 647.88 277.69
  Q 647.03 291.47 643.02 311.49
  Q 634.50 354.01 612.17 389.92
  Q 599.45 410.38 580.82 428.81
  Q 570.01 439.49 557.76 447.66
  C 552.01 451.50 544.14 455.36 536.99 458.99
  C 529.46 462.81 528.09 469.07 524.30 477.28
  Q 522.24 481.74 514.71 491.43
  C 512.20 494.65 509.43 496.78 506.12 498.87
  C 501.30 501.93 494.60 500.49 490.06 497.48
  C 484.49 493.78 481.75 487.43 479.84 479.72
  C 477.73 471.16 475.62 463.93 471.62 456.60
  Q 461.09 437.26 446.22 421.73
  Q 441.88 417.20 422.60 397.81
  Q 413.98 389.14 404.03 376.94
  C 388.61 358.04 379.19 334.09 380.05 309.93
  C 381.29 275.43 402.26 247.08 432.96 232.58
  A 1.96 1.96 0.0 0 0 434.08 230.84
  C 434.49 211.79 448.51 198.54 465.76 192.27
  A 0.76 0.74 -5.4 0 0 466.26 191.68
  Q 466.88 188.01 467.02 187.25
  Q 468.89 177.41 476.66 171.16
  Q 484.26 165.04 497.23 161.46
  A 0.81 0.81 0.0 0 0 497.81 160.88
  Q 497.97 160.24 497.96 157.25
  C 497.94 151.46 500.22 144.86 504.86 141.41
  C 511.76 136.26 521.64 136.37 526.74 143.94
  Q 532.58 152.61 530.49 162.41
  Z
  M 492.07 188.02
  Q 496.18 188.08 512.54 188.05
  C 520.40 188.03 524.83 188.37 533.46 189.05
  A 1.17 1.17 0.0 0 0 534.59 187.35
  Q 532.74 183.69 528.31 182.17
  Q 514.16 177.31 499.09 182.52
  Q 495.28 183.83 491.72 187.10
  A 0.53 0.53 0.0 0 0 492.07 188.02
  Z
  M 458.81 224.91
  C 469.30 223.28 477.64 221.38 488.13 220.16
  Q 508.08 217.83 526.63 217.90
  C 535.58 217.93 545.52 219.37 554.19 219.12
  A 0.69 0.69 0.0 0 0 554.78 218.10
  Q 551.93 212.86 546.14 211.30
  Q 533.99 208.03 521.52 207.85
  Q 501.41 207.55 482.81 212.11
  Q 473.87 214.30 465.65 218.43
  Q 461.20 220.66 458.62 224.61
  A 0.20 0.19 -77.8 0 0 458.81 224.91
  Z
  M 500.87 472.22
  Q 501.37 472.09 501.69 471.19
  Q 503.91 464.81 505.66 457.47
  C 508.13 447.07 507.57 436.17 506.00 425.40
  Q 505.22 420.11 501.70 407.98
  C 497.65 394.05 494.38 381.35 494.29 370.01
  Q 494.11 348.69 505.18 329.41
  Q 513.33 315.22 524.31 304.05
  Q 531.74 296.50 543.69 285.04
  Q 555.28 273.91 559.85 268.50
  Q 567.07 259.95 573.82 250.13
  A 1.18 1.17 30.2 0 0 573.36 248.41
  Q 561.14 242.45 547.28 240.87
  Q 539.51 239.99 539.25 240.01
  Q 538.18 240.06 526.58 239.81
  Q 521.01 239.69 513.93 239.95
  Q 486.51 240.95 459.60 248.41
  Q 445.40 252.35 433.46 258.50
  C 417.88 266.53 407.71 281.91 403.56 298.80
  Q 400.32 312.03 403.16 325.57
  Q 406.13 339.76 411.91 349.43
  Q 422.05 366.39 436.33 381.50
  Q 441.05 386.51 451.03 396.18
  C 472.77 417.25 491.88 442.60 500.21 471.88
  Q 500.35 472.36 500.87 472.22
  Z
  M 528.92 438.49
  A 0.60 0.60 0.0 0 0 529.76 439.04
  C 549.38 430.63 565.41 417.32 579.24 400.54
  Q 604.46 369.97 616.49 330.74
  Q 624.20 305.60 626.66 278.74
  A 0.70 0.69 -82.4 0 0 626.09 277.99
  C 618.88 276.65 611.54 275.15 605.13 272.39
  Q 593.68 267.47 584.24 258.93
  A 0.45 0.45 0.0 0 0 583.51 259.12
  Q 582.04 263.44 579.97 269.22
  Q 579.15 271.47 579.11 274.51
  A 1.94 1.87 -59.6 0 0 579.34 275.46
  Q 583.20 282.81 583.95 284.79
  C 592.17 306.53 591.83 332.26 583.39 353.46
  Q 578.24 366.41 574.78 371.83
  Q 558.00 398.12 530.68 414.37
  A 3.61 3.61 0.0 0 0 528.92 417.47
  L 528.92 438.49
  Z
  M 529.84 344.76
  Q 545.20 347.39 554.48 358.99
  A 0.95 0.94 44.5 0 0 555.96 358.98
  C 559.59 354.29 557.95 347.84 553.96 344.01
  Q 546.10 336.46 535.17 337.85
  C 531.45 338.32 529.28 340.41 529.11 343.85
  A 0.88 0.88 0.0 0 0 529.84 344.76
  Z
  M 517.96 369.97
  A 0.53 0.53 0.0 0 0 518.29 370.41
  L 532.82 375.96
  A 2.32 2.31 30.8 0 0 535.40 375.31
  Q 537.95 372.37 536.32 368.88
  C 534.07 364.09 525.85 361.37 521.06 360.70
  A 1.59 1.58 14.3 0 0 519.36 361.70
  Q 517.62 366.19 517.96 369.97
  Z"
/>
<path fill="#f7f7f7" d="
  M 492.07 188.02
  A 0.53 0.53 0.0 0 1 491.72 187.10
  Q 495.28 183.83 499.09 182.52
  Q 514.16 177.31 528.31 182.17
  Q 532.74 183.69 534.59 187.35
  A 1.17 1.17 0.0 0 1 533.46 189.05
  C 524.83 188.37 520.40 188.03 512.54 188.05
  Q 496.18 188.08 492.07 188.02
  Z"
/>
<path fill="#f7f7f7" d="
  M 458.81 224.91
  A 0.20 0.19 -77.8 0 1 458.62 224.61
  Q 461.20 220.66 465.65 218.43
  Q 473.87 214.30 482.81 212.11
  Q 501.41 207.55 521.52 207.85
  Q 533.99 208.03 546.14 211.30
  Q 551.93 212.86 554.78 218.10
  A 0.69 0.69 0.0 0 1 554.19 219.12
  C 545.52 219.37 535.58 217.93 526.63 217.90
  Q 508.08 217.83 488.13 220.16
  C 477.64 221.38 469.30 223.28 458.81 224.91
  Z"
/>
<path fill="#f7f7f7" d="
  M 500.87 472.22
  Q 500.35 472.36 500.21 471.88
  C 491.88 442.60 472.77 417.25 451.03 396.18
  Q 441.05 386.51 436.33 381.50
  Q 422.05 366.39 411.91 349.43
  Q 406.13 339.76 403.16 325.57
  Q 400.32 312.03 403.56 298.80
  C 407.71 281.91 417.88 266.53 433.46 258.50
  Q 445.40 252.35 459.60 248.41
  Q 486.51 240.95 513.93 239.95
  Q 521.01 239.69 526.58 239.81
  Q 538.18 240.06 539.25 240.01
  Q 539.51 239.99 547.28 240.87
  Q 561.14 242.45 573.36 248.41
  A 1.18 1.17 30.2 0 1 573.82 250.13
  Q 567.07 259.95 559.85 268.50
  Q 555.28 273.91 543.69 285.04
  Q 531.74 296.50 524.31 304.05
  Q 513.33 315.22 505.18 329.41
  Q 494.11 348.69 494.29 370.01
  C 494.38 381.35 497.65 394.05 501.70 407.98
  Q 505.22 420.11 506.00 425.40
  C 507.57 436.17 508.13 447.07 505.66 457.47
  Q 503.91 464.81 501.69 471.19
  Q 501.37 472.09 500.87 472.22
  Z"
/>
<path fill="#f7f7f7" d="
  M 528.92 438.49
  L 528.92 417.47
  A 3.61 3.61 0.0 0 1 530.68 414.37
  Q 558.00 398.12 574.78 371.83
  Q 578.24 366.41 583.39 353.46
  C 591.83 332.26 592.17 306.53 583.95 284.79
  Q 583.20 282.81 579.34 275.46
  A 1.94 1.87 -59.6 0 1 579.11 274.51
  Q 579.15 271.47 579.97 269.22
  Q 582.04 263.44 583.51 259.12
  A 0.45 0.45 0.0 0 1 584.24 258.93
  Q 593.68 267.47 605.13 272.39
  C 611.54 275.15 618.88 276.65 626.09 277.99
  A 0.70 0.69 -82.4 0 1 626.66 278.74
  Q 624.20 305.60 616.49 330.74
  Q 604.46 369.97 579.24 400.54
  C 565.41 417.32 549.38 430.63 529.76 439.04
  A 0.60 0.60 0.0 0 1 528.92 438.49
  Z"
/>
<path fill="#f7f7f7" d="
  M 529.11 343.85
  C 529.28 340.41 531.45 338.32 535.17 337.85
  Q 546.10 336.46 553.96 344.01
  C 557.95 347.84 559.59 354.29 555.96 358.98
  A 0.95 0.94 44.5 0 1 554.48 358.99
  Q 545.20 347.39 529.84 344.76
  A 0.88 0.88 0.0 0 1 529.11 343.85
  Z"
/>
<path fill="#f7f7f7" d="
  M 517.96 369.97
  Q 517.62 366.19 519.36 361.70
  A 1.59 1.58 14.3 0 1 521.06 360.70
  C 525.85 361.37 534.07 364.09 536.32 368.88
  Q 537.95 372.37 535.40 375.31
  A 2.32 2.31 30.8 0 1 532.82 375.96
  L 518.29 370.41
  A 0.53 0.53 0.0 0 1 517.96 369.97
  Z"
/>
<path fill="#dab25d" d="
  M 572.10 647.86
  A 0.27 0.26 88.0 0 0 572.46 648.20
  C 595.60 636.63 619.96 627.63 645.35 619.63
  Q 695.48 603.82 747.57 597.39
  A 1.05 1.05 0.0 0 0 748.49 596.38
  Q 748.61 592.89 748.58 589.25
  Q 748.27 534.55 748.53 465.00
  C 748.57 453.13 767.98 453.15 767.97 465.26
  Q 767.93 513.62 767.92 609.29
  C 767.92 614.73 760.43 616.26 755.76 616.75
  Q 732.70 619.20 708.79 624.07
  Q 676.51 630.66 647.65 639.68
  Q 633.20 644.20 608.99 653.62
  Q 596.94 658.30 583.05 665.28
  Q 559.62 677.04 557.68 678.17
  C 543.99 686.10 531.95 692.72 520.13 701.90
  Q 513.09 707.36 505.86 702.01
  C 499.06 696.97 495.42 694.41 488.40 690.12
  Q 478.96 684.34 452.62 671.14
  Q 397.16 643.36 339.89 628.94
  Q 304.47 620.02 262.22 615.59
  Q 258.93 615.25 256.80 611.45
  Q 255.99 610.01 256.00 604.51
  Q 256.24 532.89 255.93 463.25
  A 4.84 4.81 66.2 0 1 257.19 459.97
  Q 262.66 453.99 270.01 457.15
  C 274.41 459.04 274.92 462.43 274.92 467.29
  Q 274.96 548.29 274.93 596.04
  A 0.83 0.82 -88.2 0 0 275.70 596.87
  Q 278.18 597.05 280.89 597.42
  Q 332.00 604.49 382.58 620.47
  Q 417.11 631.39 444.11 644.38
  Q 446.44 645.49 448.67 646.00
  A 0.34 0.34 0.0 0 0 448.95 645.39
  Q 428.00 630.25 402.80 618.02
  C 373.02 603.56 341.55 592.46 309.80 584.92
  C 305.14 583.81 300.24 583.26 296.21 581.56
  Q 291.80 579.70 291.76 574.75
  Q 291.43 540.23 291.83 426.53
  C 291.87 415.46 304.71 419.35 311.19 420.65
  Q 330.25 424.49 352.58 431.42
  Q 442.34 459.27 498.05 533.91
  Q 506.10 544.70 511.85 555.57
  A 0.49 0.49 0.0 0 0 512.71 555.56
  Q 518.07 545.04 524.43 536.44
  C 552.80 498.08 588.99 467.72 631.65 447.69
  C 660.71 434.05 689.97 424.91 721.18 419.16
  C 729.95 417.54 731.73 421.08 731.70 429.00
  Q 731.43 513.05 731.89 575.59
  Q 731.93 581.77 725.53 583.12
  Q 695.41 589.47 668.99 598.47
  Q 653.82 603.64 642.68 608.43
  Q 607.02 623.75 573.38 646.39
  Q 572.45 647.01 572.10 647.86
  Z
  M 501.85 665.69
  L 501.85 583.55
  A 3.19 3.16 -53.5 0 0 501.72 582.65
  Q 500.94 580.02 499.25 576.51
  Q 491.22 559.79 482.71 548.28
  C 478.22 542.21 471.17 532.89 464.55 525.73
  Q 415.43 472.58 345.98 450.04
  Q 330.95 445.17 312.53 440.66
  A 0.65 0.65 0.0 0 0 311.73 441.29
  L 311.73 564.02
  A 1.55 1.54 3.8 0 0 313.07 565.55
  Q 316.05 565.96 320.81 567.18
  Q 353.11 575.48 382.90 587.37
  Q 437.98 609.36 482.85 648.10
  C 489.59 653.92 495.07 659.49 501.42 665.86
  A 0.25 0.25 0.0 0 0 501.85 665.69
  Z
  M 523.04 665.36
  C 523.89 664.46 524.95 662.49 526.16 661.36
  Q 574.83 615.81 632.03 591.52
  Q 670.29 575.27 711.46 565.75
  A 1.95 1.94 -6.6 0 0 712.97 563.86
  L 712.97 441.67
  A 0.82 0.81 -6.5 0 0 711.97 440.88
  C 672.18 450.03 633.75 464.73 600.64 489.25
  Q 570.52 511.56 547.51 540.22
  Q 533.01 558.29 523.17 579.41
  Q 521.90 582.14 521.87 585.56
  Q 521.60 622.64 522.11 653.00
  Q 522.22 660.09 522.08 664.96
  A 0.56 0.56 0.0 0 0 523.04 665.36
  Z"
/>
<path fill="#f7f7f7" d="
  M 501.85 665.69
  A 0.25 0.25 0.0 0 1 501.42 665.86
  C 495.07 659.49 489.59 653.92 482.85 648.10
  Q 437.98 609.36 382.90 587.37
  Q 353.11 575.48 320.81 567.18
  Q 316.05 565.96 313.07 565.55
  A 1.55 1.54 3.8 0 1 311.73 564.02
  L 311.73 441.29
  A 0.65 0.65 0.0 0 1 312.53 440.66
  Q 330.95 445.17 345.98 450.04
  Q 415.43 472.58 464.55 525.73
  C 471.17 532.89 478.22 542.21 482.71 548.28
  Q 491.22 559.79 499.25 576.51
  Q 500.94 580.02 501.72 582.65
  A 3.19 3.16 -53.5 0 1 501.85 583.55
  L 501.85 665.69
  Z"
/>
<path fill="#f7f7f7" d="
  M 523.04 665.36
  A 0.56 0.56 0.0 0 1 522.08 664.96
  Q 522.22 660.09 522.11 653.00
  Q 521.60 622.64 521.87 585.56
  Q 521.90 582.14 523.17 579.41
  Q 533.01 558.29 547.51 540.22
  Q 570.52 511.56 600.64 489.25
  C 633.75 464.73 672.18 450.03 711.97 440.88
  A 0.82 0.81 -6.5 0 1 712.97 441.67
  L 712.97 563.86
  A 1.95 1.94 -6.6 0 1 711.46 565.75
  Q 670.29 575.27 632.03 591.52
  Q 574.83 615.81 526.16 661.36
  C 524.95 662.49 523.89 664.46 523.04 665.36
  Z"
/>
</svg>
