<svg xmlns="http://www.w3.org/2000/svg" xmlns:xlink="http://www.w3.org/1999/xlink" width="1366" zoomAndPan="magnify" viewBox="0 0 1024.5 576" height="768" preserveAspectRatio="xMidYMid meet" version="1.0"><defs><g/><clipPath id="aa9ae9ad85"><path d="M 0 0.140625 L 1024 0.140625 L 1024 575.859375 L 0 575.859375 Z M 0 0.140625 " clip-rule="nonzero"/></clipPath></defs><g clip-path="url(#aa9ae9ad85)"><path fill="#ffffff" d="M 0 0.140625 L 1024 0.140625 L 1024 575.859375 L 0 575.859375 Z M 0 0.140625 " fill-opacity="1" fill-rule="nonzero"/><path fill="#ffffff" d="M 0 0.140625 L 1024 0.140625 L 1024 575.859375 L 0 575.859375 Z M 0 0.140625 " fill-opacity="1" fill-rule="nonzero"/></g><g fill="#545454" fill-opacity="1"><g transform="translate(424.338473, 300.743788)"><g><path d="M 11.90625 5.1875 C 12.988281 4.65625 13.816406 4.070312 14.390625 3.4375 C 14.960938 2.800781 15.382812 2.148438 15.65625 1.484375 C 15.9375 0.828125 16.09375 0.171875 16.125 -0.484375 C 16.164062 -1.140625 16.1875 -1.757812 16.1875 -2.34375 L 16.1875 -2.84375 C 15.632812 -1.832031 14.832031 -1.054688 13.78125 -0.515625 C 12.726562 0.015625 11.503906 0.28125 10.109375 0.28125 C 8.597656 0.28125 7.300781 -0.00390625 6.21875 -0.578125 C 5.144531 -1.148438 4.257812 -1.96875 3.5625 -3.03125 C 2.863281 -4.101562 2.351562 -5.382812 2.03125 -6.875 C 1.707031 -8.363281 1.546875 -10.019531 1.546875 -11.84375 C 1.546875 -13.707031 1.757812 -15.425781 2.1875 -17 C 2.625 -18.570312 3.28125 -19.925781 4.15625 -21.0625 C 5.03125 -22.207031 6.132812 -23.097656 7.46875 -23.734375 C 8.800781 -24.367188 10.378906 -24.6875 12.203125 -24.6875 C 13.804688 -24.6875 15.15625 -24.421875 16.25 -23.890625 C 17.34375 -23.367188 18.195312 -22.78125 18.8125 -22.125 L 16.734375 -19.390625 C 16.109375 -20.015625 15.34375 -20.5 14.4375 -20.84375 C 13.539062 -21.195312 12.625 -21.375 11.6875 -21.375 C 10.65625 -21.375 9.789062 -21.132812 9.09375 -20.65625 C 8.40625 -20.175781 7.84375 -19.519531 7.40625 -18.6875 C 6.976562 -17.863281 6.664062 -16.894531 6.46875 -15.78125 C 6.28125 -14.664062 6.1875 -13.472656 6.1875 -12.203125 C 6.1875 -10.828125 6.273438 -9.582031 6.453125 -8.46875 C 6.640625 -7.351562 6.914062 -6.394531 7.28125 -5.59375 C 7.65625 -4.789062 8.140625 -4.164062 8.734375 -3.71875 C 9.335938 -3.28125 10.070312 -3.0625 10.9375 -3.0625 C 11.488281 -3.0625 12.050781 -3.1875 12.625 -3.4375 C 13.207031 -3.6875 13.726562 -4.046875 14.1875 -4.515625 C 14.65625 -4.984375 15.035156 -5.550781 15.328125 -6.21875 C 15.617188 -6.894531 15.765625 -7.664062 15.765625 -8.53125 L 15.765625 -11.796875 L 19.96875 -11.796875 L 19.96875 -0.96875 C 19.96875 0.488281 19.769531 1.707031 19.375 2.6875 C 18.976562 3.675781 18.472656 4.5 17.859375 5.15625 C 17.253906 5.820312 16.570312 6.375 15.8125 6.8125 C 15.0625 7.257812 14.3125 7.664062 13.5625 8.03125 Z M 11.90625 5.1875 "/></g></g></g><g fill="#545454" fill-opacity="1"><g transform="translate(446.107888, 300.743788)"><g><path d="M 2.515625 -24.359375 L 6.796875 -24.359375 L 6.796875 0 L 2.515625 0 Z M 2.515625 -24.359375 "/></g></g></g><g fill="#545454" fill-opacity="1"><g transform="translate(455.427356, 300.743788)"><g><path d="M 17.34375 -24.359375 L 16.796875 -21.125 L 10.765625 -21.125 L 10.765625 0 L 6.515625 0 L 6.515625 -21.125 L 0.359375 -21.125 L 0.359375 -24.359375 Z M 17.34375 -24.359375 "/></g></g></g><g fill="#545454" fill-opacity="1"><g transform="translate(473.166733, 300.743788)"><g><path d="M 9.171875 -24.359375 L 12.5625 -24.359375 L 21.953125 0 L 17.375 0 L 15.15625 -6.375 L 6.375 -6.375 L 4.0625 0 L -0.1875 0 Z M 14.03125 -9.53125 C 13.257812 -11.695312 12.597656 -13.660156 12.046875 -15.421875 C 11.503906 -17.179688 11.085938 -18.566406 10.796875 -19.578125 C 10.460938 -18.492188 10.019531 -17.078125 9.46875 -15.328125 C 8.914062 -13.578125 8.265625 -11.644531 7.515625 -9.53125 Z M 14.03125 -9.53125 "/></g></g></g><g fill="#545454" fill-opacity="1"><g transform="translate(494.936148, 300.743788)"><g/></g></g><g fill="#545454" fill-opacity="1"><g transform="translate(504.111685, 300.743788)"><g><path d="M 11.90625 5.1875 C 12.988281 4.65625 13.816406 4.070312 14.390625 3.4375 C 14.960938 2.800781 15.382812 2.148438 15.65625 1.484375 C 15.9375 0.828125 16.09375 0.171875 16.125 -0.484375 C 16.164062 -1.140625 16.1875 -1.757812 16.1875 -2.34375 L 16.1875 -2.84375 C 15.632812 -1.832031 14.832031 -1.054688 13.78125 -0.515625 C 12.726562 0.015625 11.503906 0.28125 10.109375 0.28125 C 8.597656 0.28125 7.300781 -0.00390625 6.21875 -0.578125 C 5.144531 -1.148438 4.257812 -1.96875 3.5625 -3.03125 C 2.863281 -4.101562 2.351562 -5.382812 2.03125 -6.875 C 1.707031 -8.363281 1.546875 -10.019531 1.546875 -11.84375 C 1.546875 -13.707031 1.757812 -15.425781 2.1875 -17 C 2.625 -18.570312 3.28125 -19.925781 4.15625 -21.0625 C 5.03125 -22.207031 6.132812 -23.097656 7.46875 -23.734375 C 8.800781 -24.367188 10.378906 -24.6875 12.203125 -24.6875 C 13.804688 -24.6875 15.15625 -24.421875 16.25 -23.890625 C 17.34375 -23.367188 18.195312 -22.78125 18.8125 -22.125 L 16.734375 -19.390625 C 16.109375 -20.015625 15.34375 -20.5 14.4375 -20.84375 C 13.539062 -21.195312 12.625 -21.375 11.6875 -21.375 C 10.65625 -21.375 9.789062 -21.132812 9.09375 -20.65625 C 8.40625 -20.175781 7.84375 -19.519531 7.40625 -18.6875 C 6.976562 -17.863281 6.664062 -16.894531 6.46875 -15.78125 C 6.28125 -14.664062 6.1875 -13.472656 6.1875 -12.203125 C 6.1875 -10.828125 6.273438 -9.582031 6.453125 -8.46875 C 6.640625 -7.351562 6.914062 -6.394531 7.28125 -5.59375 C 7.65625 -4.789062 8.140625 -4.164062 8.734375 -3.71875 C 9.335938 -3.28125 10.070312 -3.0625 10.9375 -3.0625 C 11.488281 -3.0625 12.050781 -3.1875 12.625 -3.4375 C 13.207031 -3.6875 13.726562 -4.046875 14.1875 -4.515625 C 14.65625 -4.984375 15.035156 -5.550781 15.328125 -6.21875 C 15.617188 -6.894531 15.765625 -7.664062 15.765625 -8.53125 L 15.765625 -11.796875 L 19.96875 -11.796875 L 19.96875 -0.96875 C 19.96875 0.488281 19.769531 1.707031 19.375 2.6875 C 18.976562 3.675781 18.472656 4.5 17.859375 5.15625 C 17.253906 5.820312 16.570312 6.375 15.8125 6.8125 C 15.0625 7.257812 14.3125 7.664062 13.5625 8.03125 Z M 11.90625 5.1875 "/></g></g></g><g fill="#545454" fill-opacity="1"><g transform="translate(525.881101, 300.743788)"><g><path d="M 6.40625 -24.359375 L 6.40625 -9.28125 C 6.40625 -7.050781 6.875 -5.460938 7.8125 -4.515625 C 8.75 -3.566406 10.019531 -3.09375 11.625 -3.09375 C 13.25 -3.09375 14.453125 -3.640625 15.234375 -4.734375 C 16.015625 -5.828125 16.40625 -7.34375 16.40625 -9.28125 L 16.40625 -24.359375 L 20.6875 -24.359375 L 20.6875 -8.953125 C 20.6875 -7.710938 20.523438 -6.539062 20.203125 -5.4375 C 19.878906 -4.332031 19.34375 -3.359375 18.59375 -2.515625 C 17.851562 -1.679688 16.867188 -1.015625 15.640625 -0.515625 C 14.421875 -0.0234375 12.925781 0.21875 11.15625 0.21875 C 9.445312 0.21875 8.023438 -0.0234375 6.890625 -0.515625 C 5.753906 -1.015625 4.832031 -1.679688 4.125 -2.515625 C 3.414062 -3.359375 2.910156 -4.332031 2.609375 -5.4375 C 2.304688 -6.539062 2.15625 -7.710938 2.15625 -8.953125 L 2.15625 -24.359375 Z M 6.40625 -24.359375 "/></g></g></g><g fill="#545454" fill-opacity="1"><g transform="translate(548.729991, 300.743788)"><g><path d="M 2.515625 -24.359375 L 6.796875 -24.359375 L 6.796875 0 L 2.515625 0 Z M 2.515625 -24.359375 "/></g></g></g><g fill="#545454" fill-opacity="1"><g transform="translate(558.049459, 300.743788)"><g><path d="M 2.515625 -24.359375 C 2.679688 -24.359375 3.039062 -24.363281 3.59375 -24.375 C 4.144531 -24.382812 4.769531 -24.390625 5.46875 -24.390625 C 6.164062 -24.390625 6.882812 -24.394531 7.625 -24.40625 C 8.375 -24.425781 9.023438 -24.4375 9.578125 -24.4375 C 13.648438 -24.4375 16.671875 -23.421875 18.640625 -21.390625 C 20.609375 -19.367188 21.59375 -16.351562 21.59375 -12.34375 C 21.59375 -8.332031 20.582031 -5.257812 18.5625 -3.125 C 16.550781 -0.988281 13.398438 0.078125 9.109375 0.078125 C 8.359375 0.078125 7.628906 0.0664062 6.921875 0.046875 C 6.210938 0.0351562 5.566406 0.03125 4.984375 0.03125 C 4.398438 0.03125 3.890625 0.0234375 3.453125 0.015625 C 3.023438 0.00390625 2.710938 0 2.515625 0 Z M 9.0625 -21.234375 C 8.507812 -21.234375 8.046875 -21.222656 7.671875 -21.203125 C 7.304688 -21.191406 7.015625 -21.1875 6.796875 -21.1875 L 6.796875 -3.171875 C 7.066406 -3.140625 7.410156 -3.125 7.828125 -3.125 C 8.242188 -3.125 8.847656 -3.125 9.640625 -3.125 C 12.160156 -3.125 14.007812 -3.863281 15.1875 -5.34375 C 16.363281 -6.820312 16.953125 -9.023438 16.953125 -11.953125 C 16.953125 -13.335938 16.8125 -14.597656 16.53125 -15.734375 C 16.257812 -16.878906 15.804688 -17.859375 15.171875 -18.671875 C 14.535156 -19.492188 13.71875 -20.125 12.71875 -20.5625 C 11.726562 -21.007812 10.507812 -21.234375 9.0625 -21.234375 Z M 9.0625 -21.234375 "/></g></g></g><g fill="#545454" fill-opacity="1"><g transform="translate(581.186211, 300.743788)"><g><path d="M 2.515625 -24.359375 L 16.984375 -24.359375 L 16.984375 -21.125 L 6.796875 -21.125 L 6.796875 -14.328125 L 15.1875 -14.328125 L 14.640625 -11.046875 L 6.796875 -11.046875 L 6.796875 -3.234375 L 17.53125 -3.234375 L 17.53125 0 L 2.515625 0 Z M 2.515625 -24.359375 "/></g></g></g></svg>