<?xml version="1.0" encoding="UTF-8" standalone="no"?>
<!DOCTYPE svg PUBLIC "-//W3C//DTD SVG 1.1//EN" "http://www.w3.org/Graphics/SVG/1.1/DTD/svg11.dtd">
<svg xmlns="http://www.w3.org/2000/svg" version="1.1" viewBox="0.00 0.00 1024.00 1024.00">
<g stroke-width="5.00" fill="none" stroke-linecap="butt">
<path stroke="#cb9d80" vector-effect="non-scaling-stroke" d="
  M 440.44 152.05
  Q 424.48 158.19 414.37 166.61
  C 400.30 178.32 392.34 192.93 391.52 211.74
  Q 391.43 213.69 389.62 214.61
  Q 379.16 219.88 372.00 224.51
  Q 350.31 238.53 335.59 257.72
  C 314.69 284.97 305.36 318.05 308.72 352.26
  C 311.06 376.17 319.44 398.78 332.15 419.58
  Q 337.86 428.93 349.66 442.88
  Q 363.19 458.87 369.00 464.75
  Q 389.50 485.50 406.51 502.74
  Q 431.79 528.37 449.31 560.19
  C 456.17 572.63 459.27 584.69 463.34 599.98
  C 464.82 605.55 466.92 610.87 469.73 615.26
  C 476.56 625.91 491.95 633.43 503.79 625.56
  C 508.31 622.54 511.99 619.83 515.78 615.16
  Q 521.87 607.68 527.02 599.93
  C 530.85 594.17 533.34 588.01 536.19 581.22
  Q 541.08 569.56 550.49 564.76
  C 564.02 557.85 573.20 553.70 583.24 546.75
  Q 603.24 532.92 619.64 516.66
  Q 653.40 483.18 675.67 442.94
  Q 691.90 413.62 701.80 384.30
  Q 715.43 343.93 720.89 298.41
  C 721.90 290.04 722.59 279.31 723.32 270.44
  C 724.74 253.23 713.61 252.13 700.13 251.11
  Q 691.67 250.47 680.26 247.19
  Q 663.02 242.23 648.61 229.88
  C 635.68 218.79 624.50 208.69 610.33 202.03
  A 2.37 2.37 0.0 0 1 609.01 199.46
  Q 610.79 189.82 608.56 180.42
  C 605.44 167.31 593.42 158.22 580.86 154.04
  A 1.43 1.43 0.0 0 1 579.88 152.58
  C 580.86 139.09 577.32 126.96 566.39 118.40
  C 559.73 113.17 549.14 108.96 541.44 106.81
  A 0.82 0.82 0.0 0 1 540.85 106.08
  C 540.74 104.11 541.19 101.93 541.44 99.13
  Q 542.24 90.30 536.36 79.73
  C 530.51 69.20 519.21 65.35 508.21 69.70
  C 493.51 75.51 490.08 88.22 490.24 102.61
  A 2.21 2.21 0.0 0 1 488.56 104.78
  Q 475.78 108.00 464.75 114.56
  C 452.90 121.60 445.49 130.61 442.72 143.91
  Q 441.46 150.02 441.07 151.36
  A 1.03 1.01 87.9 0 1 440.44 152.05"
/>
<path stroke="#cb9d80" vector-effect="non-scaling-stroke" d="
  M 414.56 853.25
  Q 412.91 853.27 410.98 852.53
  C 402.07 849.15 388.22 842.08 377.09 837.51
  Q 343.54 823.76 310.67 813.62
  C 298.02 809.72 277.28 803.52 261.24 799.66
  Q 252.97 797.67 242.70 795.03
  C 231.01 792.03 217.66 789.66 207.17 787.34
  C 190.01 783.53 169.50 780.88 150.72 777.74
  C 149.37 777.52 147.81 777.57 146.44 777.37
  A 0.88 0.88 0.0 0 1 145.69 776.50
  Q 145.72 680.87 145.68 581.65
  C 145.67 573.41 146.57 564.90 137.65 561.36
  C 129.79 558.24 123.13 560.14 118.01 566.22
  Q 116.18 568.40 116.19 570.28
  Q 116.56 636.01 116.36 793.48
  Q 116.35 801.29 121.76 804.72
  Q 124.49 806.45 131.87 807.29
  Q 180.50 812.78 218.46 820.92
  Q 288.12 835.84 355.52 863.24
  Q 407.55 884.39 463.66 914.75
  C 472.45 919.51 483.25 926.05 490.25 931.28
  Q 500.63 939.05 505.79 941.92
  C 516.38 947.80 522.76 941.41 532.18 934.45
  C 546.21 924.07 560.70 916.15 576.78 906.71
  Q 584.43 902.21 593.76 897.48
  C 614.02 887.22 634.44 876.52 652.98 869.00
  C 680.39 857.88 708.87 847.41 737.76 838.95
  Q 813.72 816.69 890.20 808.11
  C 896.31 807.43 905.32 805.63 907.52 798.96
  Q 907.82 798.03 907.82 791.50
  Q 907.80 643.34 907.89 580.30
  Q 907.90 572.30 907.12 569.77
  C 904.20 560.32 892.84 558.00 884.98 561.72
  Q 877.69 565.18 877.67 576.00
  Q 877.37 735.82 877.87 766.51
  Q 877.95 770.92 877.60 776.86
  A 1.47 1.46 -1.9 0 1 876.31 778.23
  Q 794.23 788.40 716.31 813.29
  Q 693.01 820.73 665.60 830.81
  C 645.83 838.08 625.62 847.08 605.69 856.90
  A 0.41 0.41 0.0 0 1 605.13 856.38
  Q 605.60 855.20 606.54 854.57
  Q 628.95 839.33 661.32 821.34
  Q 676.93 812.66 702.27 800.93
  Q 724.37 790.70 744.59 783.59
  Q 792.11 766.86 842.12 756.38
  Q 852.12 754.29 852.06 743.55
  Q 851.41 634.95 851.83 517.75
  C 851.88 506.05 848.48 500.34 835.50 502.73
  C 789.48 511.18 744.75 524.94 702.09 544.56
  Q 670.63 559.03 643.48 577.07
  Q 579.19 619.78 532.70 682.34
  C 530.01 685.96 527.27 690.40 524.82 693.84
  C 520.65 699.71 517.05 706.95 513.27 713.54
  A 0.86 0.85 45.3 0 1 511.78 713.53
  Q 506.16 703.34 501.35 695.94
  Q 491.85 681.32 479.66 666.17
  Q 412.40 582.59 314.62 539.89
  Q 284.90 526.91 250.48 517.26
  Q 221.46 509.12 199.17 504.61
  C 188.49 502.45 171.76 498.19 171.70 514.73
  Q 171.03 707.94 171.66 743.09
  Q 171.80 751.03 178.72 754.00
  C 185.27 756.80 192.43 757.45 198.61 758.92
  Q 255.86 772.48 309.13 794.83
  C 346.46 810.50 382.34 829.14 414.74 852.70
  A 0.30 0.30 0.0 0 1 414.56 853.25"
/>
<path stroke="#cb9d80" vector-effect="non-scaling-stroke" d="
  M 480.73 145.38
  Q 481.16 145.65 481.56 145.66
  Q 485.15 145.68 520.50 145.68
  Q 528.69 145.68 541.04 146.83
  Q 543.90 147.10 545.83 146.97
  A 1.61 1.60 75.9 0 0 547.18 144.71
  C 544.64 139.02 538.14 136.21 532.32 134.79
  Q 511.51 129.71 492.04 136.99
  Q 485.39 139.48 480.59 144.12
  A 0.80 0.80 0.0 0 0 480.73 145.38"
/>
<path stroke="#cb9d80" vector-effect="non-scaling-stroke" d="
  M 429.86 202.58
  Q 431.54 202.46 435.44 201.87
  C 445.44 200.38 460.48 197.05 471.98 195.76
  C 488.75 193.89 501.48 193.02 521.00 192.00
  Q 522.83 191.90 535.84 191.89
  C 545.62 191.87 553.59 192.86 565.50 193.65
  Q 572.02 194.09 577.49 193.64
  A 1.06 1.06 0.0 0 0 578.33 192.07
  C 574.52 185.29 569.44 182.31 561.45 180.48
  Q 536.53 174.77 510.50 176.53
  C 486.11 178.18 461.74 181.80 440.31 192.56
  Q 433.59 195.93 429.51 201.97
  A 0.39 0.39 0.0 0 0 429.86 202.58"
/>
<path stroke="#cb9d80" vector-effect="non-scaling-stroke" d="
  M 495.01 584.83
  Q 495.82 584.43 496.24 583.24
  Q 499.75 573.38 502.51 561.52
  C 506.13 545.93 505.47 528.48 502.92 512.39
  C 500.72 498.53 495.18 482.42 491.89 469.62
  Q 487.73 453.45 486.10 442.19
  C 481.83 412.71 489.12 383.41 505.31 358.22
  Q 515.17 342.87 523.42 333.64
  C 538.89 316.33 559.64 297.27 574.41 282.68
  C 586.49 270.73 596.40 257.62 606.74 243.00
  C 608.15 241.01 608.92 239.51 606.26 238.30
  Q 588.49 230.24 569.23 227.56
  Q 561.14 226.44 558.25 226.27
  Q 534.35 224.91 516.76 225.62
  Q 497.27 226.40 475.08 229.43
  Q 456.64 231.94 433.13 238.14
  C 417.67 242.22 402.13 247.90 388.13 255.82
  C 375.64 262.89 365.46 272.82 357.96 284.66
  C 343.97 306.76 338.63 332.57 343.79 358.11
  C 346.35 370.82 350.56 383.72 357.35 395.01
  C 370.37 416.67 386.23 436.37 404.67 454.38
  Q 423.77 473.04 433.52 483.49
  C 460.39 512.28 482.32 546.29 493.81 584.31
  A 0.86 0.85 68.2 0 0 495.01 584.83"
/>
<path stroke="#cb9d80" vector-effect="non-scaling-stroke" d="
  M 539.42 533.63
  C 549.94 529.03 560.71 523.50 570.38 516.59
  Q 588.39 503.71 599.46 492.45
  Q 641.14 450.06 663.87 393.89
  C 677.76 359.57 686.01 322.49 689.42 285.78
  A 1.37 1.37 0.0 0 0 688.26 284.30
  Q 679.55 283.03 671.15 280.82
  Q 644.43 273.81 624.07 255.22
  A 0.95 0.95 0.0 0 0 622.54 255.60
  Q 619.60 263.84 617.21 270.71
  Q 615.73 274.95 615.89 279.32
  A 5.32 5.30 -60.2 0 0 616.50 281.58
  C 619.88 287.99 623.35 294.51 625.58 301.73
  C 636.00 335.39 634.35 371.49 621.04 404.45
  C 617.53 413.14 613.49 422.68 608.68 430.18
  Q 586.13 465.37 551.11 488.86
  Q 543.37 494.05 540.70 495.72
  Q 538.13 497.33 538.13 500.74
  Q 538.13 511.67 538.16 532.81
  A 0.90 0.90 0.0 0 0 539.42 533.63"
/>
<path stroke="#cb9d80" vector-effect="non-scaling-stroke" d="
  M 539.43 387.90
  Q 563.09 391.78 577.67 409.82
  A 1.61 1.61 0.0 0 0 580.26 409.71
  C 585.87 401.38 582.99 391.98 575.73 385.54
  Q 562.96 374.19 546.46 377.48
  Q 538.98 378.97 538.43 386.63
  A 1.21 1.20 -83.4 0 0 539.43 387.90"
/>
<path stroke="#cb9d80" vector-effect="non-scaling-stroke" d="
  M 521.16 426.63
  A 1.22 1.19 -81.7 0 0 521.95 427.71
  Q 531.47 431.19 543.44 435.87
  Q 547.21 437.34 549.21 433.97
  C 556.79 421.22 534.48 413.36 526.10 412.37
  A 2.46 2.46 0.0 0 0 523.56 413.83
  Q 520.84 420.13 521.16 426.63"
/>
<path stroke="#cb9d80" vector-effect="non-scaling-stroke" d="
  M 496.60 883.85
  Q 496.65 844.87 496.62 759.57
  C 496.62 756.30 495.90 753.43 494.62 750.63
  C 478.69 715.66 456.32 684.71 428.86 657.14
  Q 403.54 631.71 377.63 612.69
  C 353.54 595.01 326.34 578.99 297.87 566.66
  Q 285.15 561.15 280.06 559.21
  Q 243.12 545.13 203.71 535.95
  A 1.03 1.02 -75.3 0 0 202.49 536.67
  Q 202.34 537.23 202.34 538.50
  Q 202.36 546.76 202.37 726.20
  Q 202.37 728.91 204.86 729.41
  Q 210.56 730.54 213.55 731.26
  Q 243.47 738.39 281.82 751.63
  Q 318.28 764.21 347.78 778.45
  Q 412.95 809.89 467.83 857.69
  Q 482.81 870.74 495.61 884.24
  A 0.57 0.57 0.0 0 0 496.60 883.85"
/>
<path stroke="#cb9d80" vector-effect="non-scaling-stroke" d="
  M 528.98 883.71
  Q 529.35 883.54 529.70 882.98
  Q 531.83 879.57 534.79 876.80
  C 582.55 832.03 637.40 795.07 697.17 769.74
  Q 736.69 752.99 780.38 740.08
  Q 789.08 737.51 800.23 734.73
  Q 818.76 730.10 820.17 729.64
  Q 822.78 728.77 822.91 726.43
  Q 822.93 725.90 822.92 537.61
  A 1.25 1.24 -6.5 0 0 821.39 536.40
  Q 779.00 546.00 741.47 560.77
  C 711.32 572.63 682.73 587.17 657.38 605.14
  Q 612.01 637.31 575.55 679.54
  Q 548.63 710.73 530.13 748.65
  Q 527.27 754.50 527.21 760.77
  C 526.83 798.49 527.34 841.40 527.69 882.89
  A 0.91 0.91 0.0 0 0 528.98 883.71"
/>
</g>
<path fill="#ffffff" d="
  M 1024.00 0.00
  L 1024.00 1024.00
  L 0.00 1024.00
  L 0.00 0.00
  L 1024.00 0.00
  Z
  M 440.44 152.05
  Q 424.48 158.19 414.37 166.61
  C 400.30 178.32 392.34 192.93 391.52 211.74
  Q 391.43 213.69 389.62 214.61
  Q 379.16 219.88 372.00 224.51
  Q 350.31 238.53 335.59 257.72
  C 314.69 284.97 305.36 318.05 308.72 352.26
  C 311.06 376.17 319.44 398.78 332.15 419.58
  Q 337.86 428.93 349.66 442.88
  Q 363.19 458.87 369.00 464.75
  Q 389.50 485.50 406.51 502.74
  Q 431.79 528.37 449.31 560.19
  C 456.17 572.63 459.27 584.69 463.34 599.98
  C 464.82 605.55 466.92 610.87 469.73 615.26
  C 476.56 625.91 491.95 633.43 503.79 625.56
  C 508.31 622.54 511.99 619.83 515.78 615.16
  Q 521.87 607.68 527.02 599.93
  C 530.85 594.17 533.34 588.01 536.19 581.22
  Q 541.08 569.56 550.49 564.76
  C 564.02 557.85 573.20 553.70 583.24 546.75
  Q 603.24 532.92 619.64 516.66
  Q 653.40 483.18 675.67 442.94
  Q 691.90 413.62 701.80 384.30
  Q 715.43 343.93 720.89 298.41
  C 721.90 290.04 722.59 279.31 723.32 270.44
  C 724.74 253.23 713.61 252.13 700.13 251.11
  Q 691.67 250.47 680.26 247.19
  Q 663.02 242.23 648.61 229.88
  C 635.68 218.79 624.50 208.69 610.33 202.03
  A 2.37 2.37 0.0 0 1 609.01 199.46
  Q 610.79 189.82 608.56 180.42
  C 605.44 167.31 593.42 158.22 580.86 154.04
  A 1.43 1.43 0.0 0 1 579.88 152.58
  C 580.86 139.09 577.32 126.96 566.39 118.40
  C 559.73 113.17 549.14 108.96 541.44 106.81
  A 0.82 0.82 0.0 0 1 540.85 106.08
  C 540.74 104.11 541.19 101.93 541.44 99.13
  Q 542.24 90.30 536.36 79.73
  C 530.51 69.20 519.21 65.35 508.21 69.70
  C 493.51 75.51 490.08 88.22 490.24 102.61
  A 2.21 2.21 0.0 0 1 488.56 104.78
  Q 475.78 108.00 464.75 114.56
  C 452.90 121.60 445.49 130.61 442.72 143.91
  Q 441.46 150.02 441.07 151.36
  A 1.03 1.01 87.9 0 1 440.44 152.05
  Z
  M 414.56 853.25
  Q 412.91 853.27 410.98 852.53
  C 402.07 849.15 388.22 842.08 377.09 837.51
  Q 343.54 823.76 310.67 813.62
  C 298.02 809.72 277.28 803.52 261.24 799.66
  Q 252.97 797.67 242.70 795.03
  C 231.01 792.03 217.66 789.66 207.17 787.34
  C 190.01 783.53 169.50 780.88 150.72 777.74
  C 149.37 777.52 147.81 777.57 146.44 777.37
  A 0.88 0.88 0.0 0 1 145.69 776.50
  Q 145.72 680.87 145.68 581.65
  C 145.67 573.41 146.57 564.90 137.65 561.36
  C 129.79 558.24 123.13 560.14 118.01 566.22
  Q 116.18 568.40 116.19 570.28
  Q 116.56 636.01 116.36 793.48
  Q 116.35 801.29 121.76 804.72
  Q 124.49 806.45 131.87 807.29
  Q 180.50 812.78 218.46 820.92
  Q 288.12 835.84 355.52 863.24
  Q 407.55 884.39 463.66 914.75
  C 472.45 919.51 483.25 926.05 490.25 931.28
  Q 500.63 939.05 505.79 941.92
  C 516.38 947.80 522.76 941.41 532.18 934.45
  C 546.21 924.07 560.70 916.15 576.78 906.71
  Q 584.43 902.21 593.76 897.48
  C 614.02 887.22 634.44 876.52 652.98 869.00
  C 680.39 857.88 708.87 847.41 737.76 838.95
  Q 813.72 816.69 890.20 808.11
  C 896.31 807.43 905.32 805.63 907.52 798.96
  Q 907.82 798.03 907.82 791.50
  Q 907.80 643.34 907.89 580.30
  Q 907.90 572.30 907.12 569.77
  C 904.20 560.32 892.84 558.00 884.98 561.72
  Q 877.69 565.18 877.67 576.00
  Q 877.37 735.82 877.87 766.51
  Q 877.95 770.92 877.60 776.86
  A 1.47 1.46 -1.9 0 1 876.31 778.23
  Q 794.23 788.40 716.31 813.29
  Q 693.01 820.73 665.60 830.81
  C 645.83 838.08 625.62 847.08 605.69 856.90
  A 0.41 0.41 0.0 0 1 605.13 856.38
  Q 605.60 855.20 606.54 854.57
  Q 628.95 839.33 661.32 821.34
  Q 676.93 812.66 702.27 800.93
  Q 724.37 790.70 744.59 783.59
  Q 792.11 766.86 842.12 756.38
  Q 852.12 754.29 852.06 743.55
  Q 851.41 634.95 851.83 517.75
  C 851.88 506.05 848.48 500.34 835.50 502.73
  C 789.48 511.18 744.75 524.94 702.09 544.56
  Q 670.63 559.03 643.48 577.07
  Q 579.19 619.78 532.70 682.34
  C 530.01 685.96 527.27 690.40 524.82 693.84
  C 520.65 699.71 517.05 706.95 513.27 713.54
  A 0.86 0.85 45.3 0 1 511.78 713.53
  Q 506.16 703.34 501.35 695.94
  Q 491.85 681.32 479.66 666.17
  Q 412.40 582.59 314.62 539.89
  Q 284.90 526.91 250.48 517.26
  Q 221.46 509.12 199.17 504.61
  C 188.49 502.45 171.76 498.19 171.70 514.73
  Q 171.03 707.94 171.66 743.09
  Q 171.80 751.03 178.72 754.00
  C 185.27 756.80 192.43 757.45 198.61 758.92
  Q 255.86 772.48 309.13 794.83
  C 346.46 810.50 382.34 829.14 414.74 852.70
  A 0.30 0.30 0.0 0 1 414.56 853.25
  Z"
/>
<path fill="#973b00" d="
  M 441.07 151.36
  Q 441.46 150.02 442.72 143.91
  C 445.49 130.61 452.90 121.60 464.75 114.56
  Q 475.78 108.00 488.56 104.78
  A 2.21 2.21 0.0 0 0 490.24 102.61
  C 490.08 88.22 493.51 75.51 508.21 69.70
  C 519.21 65.35 530.51 69.20 536.36 79.73
  Q 542.24 90.30 541.44 99.13
  C 541.19 101.93 540.74 104.11 540.85 106.08
  A 0.82 0.82 0.0 0 0 541.44 106.81
  C 549.14 108.96 559.73 113.17 566.39 118.40
  C 577.32 126.96 580.86 139.09 579.88 152.58
  A 1.43 1.43 0.0 0 0 580.86 154.04
  C 593.42 158.22 605.44 167.31 608.56 180.42
  Q 610.79 189.82 609.01 199.46
  A 2.37 2.37 0.0 0 0 610.33 202.03
  C 624.50 208.69 635.68 218.79 648.61 229.88
  Q 663.02 242.23 680.26 247.19
  Q 691.67 250.47 700.13 251.11
  C 713.61 252.13 724.74 253.23 723.32 270.44
  C 722.59 279.31 721.90 290.04 720.89 298.41
  Q 715.43 343.93 701.80 384.30
  Q 691.90 413.62 675.67 442.94
  Q 653.40 483.18 619.64 516.66
  Q 603.24 532.92 583.24 546.75
  C 573.20 553.70 564.02 557.85 550.49 564.76
  Q 541.08 569.56 536.19 581.22
  C 533.34 588.01 530.85 594.17 527.02 599.93
  Q 521.87 607.68 515.78 615.16
  C 511.99 619.83 508.31 622.54 503.79 625.56
  C 491.95 633.43 476.56 625.91 469.73 615.26
  C 466.92 610.87 464.82 605.55 463.34 599.98
  C 459.27 584.69 456.17 572.63 449.31 560.19
  Q 431.79 528.37 406.51 502.74
  Q 389.50 485.50 369.00 464.75
  Q 363.19 458.87 349.66 442.88
  Q 337.86 428.93 332.15 419.58
  C 319.44 398.78 311.06 376.17 308.72 352.26
  C 305.36 318.05 314.69 284.97 335.59 257.72
  Q 350.31 238.53 372.00 224.51
  Q 379.16 219.88 389.62 214.61
  Q 391.43 213.69 391.52 211.74
  C 392.34 192.93 400.30 178.32 414.37 166.61
  Q 424.48 158.19 440.44 152.05
  A 1.03 1.01 87.9 0 0 441.07 151.36
  Z
  M 480.73 145.38
  Q 481.16 145.65 481.56 145.66
  Q 485.15 145.68 520.50 145.68
  Q 528.69 145.68 541.04 146.83
  Q 543.90 147.10 545.83 146.97
  A 1.61 1.60 75.9 0 0 547.18 144.71
  C 544.64 139.02 538.14 136.21 532.32 134.79
  Q 511.51 129.71 492.04 136.99
  Q 485.39 139.48 480.59 144.12
  A 0.80 0.80 0.0 0 0 480.73 145.38
  Z
  M 429.86 202.58
  Q 431.54 202.46 435.44 201.87
  C 445.44 200.38 460.48 197.05 471.98 195.76
  C 488.75 193.89 501.48 193.02 521.00 192.00
  Q 522.83 191.90 535.84 191.89
  C 545.62 191.87 553.59 192.86 565.50 193.65
  Q 572.02 194.09 577.49 193.64
  A 1.06 1.06 0.0 0 0 578.33 192.07
  C 574.52 185.29 569.44 182.31 561.45 180.48
  Q 536.53 174.77 510.50 176.53
  C 486.11 178.18 461.74 181.80 440.31 192.56
  Q 433.59 195.93 429.51 201.97
  A 0.39 0.39 0.0 0 0 429.86 202.58
  Z
  M 495.01 584.83
  Q 495.82 584.43 496.24 583.24
  Q 499.75 573.38 502.51 561.52
  C 506.13 545.93 505.47 528.48 502.92 512.39
  C 500.72 498.53 495.18 482.42 491.89 469.62
  Q 487.73 453.45 486.10 442.19
  C 481.83 412.71 489.12 383.41 505.31 358.22
  Q 515.17 342.87 523.42 333.64
  C 538.89 316.33 559.64 297.27 574.41 282.68
  C 586.49 270.73 596.40 257.62 606.74 243.00
  C 608.15 241.01 608.92 239.51 606.26 238.30
  Q 588.49 230.24 569.23 227.56
  Q 561.14 226.44 558.25 226.27
  Q 534.35 224.91 516.76 225.62
  Q 497.27 226.40 475.08 229.43
  Q 456.64 231.94 433.13 238.14
  C 417.67 242.22 402.13 247.90 388.13 255.82
  C 375.64 262.89 365.46 272.82 357.96 284.66
  C 343.97 306.76 338.63 332.57 343.79 358.11
  C 346.35 370.82 350.56 383.72 357.35 395.01
  C 370.37 416.67 386.23 436.37 404.67 454.38
  Q 423.77 473.04 433.52 483.49
  C 460.39 512.28 482.32 546.29 493.81 584.31
  A 0.86 0.85 68.2 0 0 495.01 584.83
  Z
  M 539.42 533.63
  C 549.94 529.03 560.71 523.50 570.38 516.59
  Q 588.39 503.71 599.46 492.45
  Q 641.14 450.06 663.87 393.89
  C 677.76 359.57 686.01 322.49 689.42 285.78
  A 1.37 1.37 0.0 0 0 688.26 284.30
  Q 679.55 283.03 671.15 280.82
  Q 644.43 273.81 624.07 255.22
  A 0.95 0.95 0.0 0 0 622.54 255.60
  Q 619.60 263.84 617.21 270.71
  Q 615.73 274.95 615.89 279.32
  A 5.32 5.30 -60.2 0 0 616.50 281.58
  C 619.88 287.99 623.35 294.51 625.58 301.73
  C 636.00 335.39 634.35 371.49 621.04 404.45
  C 617.53 413.14 613.49 422.68 608.68 430.18
  Q 586.13 465.37 551.11 488.86
  Q 543.37 494.05 540.70 495.72
  Q 538.13 497.33 538.13 500.74
  Q 538.13 511.67 538.16 532.81
  A 0.90 0.90 0.0 0 0 539.42 533.63
  Z
  M 539.43 387.90
  Q 563.09 391.78 577.67 409.82
  A 1.61 1.61 0.0 0 0 580.26 409.71
  C 585.87 401.38 582.99 391.98 575.73 385.54
  Q 562.96 374.19 546.46 377.48
  Q 538.98 378.97 538.43 386.63
  A 1.21 1.20 -83.4 0 0 539.43 387.90
  Z
  M 521.16 426.63
  A 1.22 1.19 -81.7 0 0 521.95 427.71
  Q 531.47 431.19 543.44 435.87
  Q 547.21 437.34 549.21 433.97
  C 556.79 421.22 534.48 413.36 526.10 412.37
  A 2.46 2.46 0.0 0 0 523.56 413.83
  Q 520.84 420.13 521.16 426.63
  Z"
/>
<path fill="#ffffff" d="
  M 480.73 145.38
  A 0.80 0.80 0.0 0 1 480.59 144.12
  Q 485.39 139.48 492.04 136.99
  Q 511.51 129.71 532.32 134.79
  C 538.14 136.21 544.64 139.02 547.18 144.71
  A 1.61 1.60 75.9 0 1 545.83 146.97
  Q 543.90 147.10 541.04 146.83
  Q 528.69 145.68 520.50 145.68
  Q 485.15 145.68 481.56 145.66
  Q 481.16 145.65 480.73 145.38
  Z"
/>
<path fill="#ffffff" d="
  M 429.86 202.58
  A 0.39 0.39 0.0 0 1 429.51 201.97
  Q 433.59 195.93 440.31 192.56
  C 461.74 181.80 486.11 178.18 510.50 176.53
  Q 536.53 174.77 561.45 180.48
  C 569.44 182.31 574.52 185.29 578.33 192.07
  A 1.06 1.06 0.0 0 1 577.49 193.64
  Q 572.02 194.09 565.50 193.65
  C 553.59 192.86 545.62 191.87 535.84 191.89
  Q 522.83 191.90 521.00 192.00
  C 501.48 193.02 488.75 193.89 471.98 195.76
  C 460.48 197.05 445.44 200.38 435.44 201.87
  Q 431.54 202.46 429.86 202.58
  Z"
/>
<path fill="#ffffff" d="
  M 495.01 584.83
  A 0.86 0.85 68.2 0 1 493.81 584.31
  C 482.32 546.29 460.39 512.28 433.52 483.49
  Q 423.77 473.04 404.67 454.38
  C 386.23 436.37 370.37 416.67 357.35 395.01
  C 350.56 383.72 346.35 370.82 343.79 358.11
  C 338.63 332.57 343.97 306.76 357.96 284.66
  C 365.46 272.82 375.64 262.89 388.13 255.82
  C 402.13 247.90 417.67 242.22 433.13 238.14
  Q 456.64 231.94 475.08 229.43
  Q 497.27 226.40 516.76 225.62
  Q 534.35 224.91 558.25 226.27
  Q 561.14 226.44 569.23 227.56
  Q 588.49 230.24 606.26 238.30
  C 608.92 239.51 608.15 241.01 606.74 243.00
  C 596.40 257.62 586.49 270.73 574.41 282.68
  C 559.64 297.27 538.89 316.33 523.42 333.64
  Q 515.17 342.87 505.31 358.22
  C 489.12 383.41 481.83 412.71 486.10 442.19
  Q 487.73 453.45 491.89 469.62
  C 495.18 482.42 500.72 498.53 502.92 512.39
  C 505.47 528.48 506.13 545.93 502.51 561.52
  Q 499.75 573.38 496.24 583.24
  Q 495.82 584.43 495.01 584.83
  Z"
/>
<path fill="#ffffff" d="
  M 539.42 533.63
  A 0.90 0.90 0.0 0 1 538.16 532.81
  Q 538.13 511.67 538.13 500.74
  Q 538.13 497.33 540.70 495.72
  Q 543.37 494.05 551.11 488.86
  Q 586.13 465.37 608.68 430.18
  C 613.49 422.68 617.53 413.14 621.04 404.45
  C 634.35 371.49 636.00 335.39 625.58 301.73
  C 623.35 294.51 619.88 287.99 616.50 281.58
  A 5.32 5.30 -60.2 0 1 615.89 279.32
  Q 615.73 274.95 617.21 270.71
  Q 619.60 263.84 622.54 255.60
  A 0.95 0.95 0.0 0 1 624.07 255.22
  Q 644.43 273.81 671.15 280.82
  Q 679.55 283.03 688.26 284.30
  A 1.37 1.37 0.0 0 1 689.42 285.78
  C 686.01 322.49 677.76 359.57 663.87 393.89
  Q 641.14 450.06 599.46 492.45
  Q 588.39 503.71 570.38 516.59
  C 560.71 523.50 549.94 529.03 539.42 533.63
  Z"
/>
<path fill="#ffffff" d="
  M 539.43 387.90
  A 1.21 1.20 -83.4 0 1 538.43 386.63
  Q 538.98 378.97 546.46 377.48
  Q 562.96 374.19 575.73 385.54
  C 582.99 391.98 585.87 401.38 580.26 409.71
  A 1.61 1.61 0.0 0 1 577.67 409.82
  Q 563.09 391.78 539.43 387.90
  Z"
/>
<path fill="#ffffff" d="
  M 521.16 426.63
  Q 520.84 420.13 523.56 413.83
  A 2.46 2.46 0.0 0 1 526.10 412.37
  C 534.48 413.36 556.79 421.22 549.21 433.97
  Q 547.21 437.34 543.44 435.87
  Q 531.47 431.19 521.95 427.71
  A 1.22 1.19 -81.7 0 1 521.16 426.63
  Z"
/>
<path fill="#973b00" d="
  M 414.56 853.25
  A 0.30 0.30 0.0 0 0 414.74 852.70
  C 382.34 829.14 346.46 810.50 309.13 794.83
  Q 255.86 772.48 198.61 758.92
  C 192.43 757.45 185.27 756.80 178.72 754.00
  Q 171.80 751.03 171.66 743.09
  Q 171.03 707.94 171.70 514.73
  C 171.76 498.19 188.49 502.45 199.17 504.61
  Q 221.46 509.12 250.48 517.26
  Q 284.90 526.91 314.62 539.89
  Q 412.40 582.59 479.66 666.17
  Q 491.85 681.32 501.35 695.94
  Q 506.16 703.34 511.78 713.53
  A 0.86 0.85 45.3 0 0 513.27 713.54
  C 517.05 706.95 520.65 699.71 524.82 693.84
  C 527.27 690.40 530.01 685.96 532.70 682.34
  Q 579.19 619.78 643.48 577.07
  Q 670.63 559.03 702.09 544.56
  C 744.75 524.94 789.48 511.18 835.50 502.73
  C 848.48 500.34 851.88 506.05 851.83 517.75
  Q 851.41 634.95 852.06 743.55
  Q 852.12 754.29 842.12 756.38
  Q 792.11 766.86 744.59 783.59
  Q 724.37 790.70 702.27 800.93
  Q 676.93 812.66 661.32 821.34
  Q 628.95 839.33 606.54 854.57
  Q 605.60 855.20 605.13 856.38
  A 0.41 0.41 0.0 0 0 605.69 856.90
  C 625.62 847.08 645.83 838.08 665.60 830.81
  Q 693.01 820.73 716.31 813.29
  Q 794.23 788.40 876.31 778.23
  A 1.47 1.46 -1.9 0 0 877.60 776.86
  Q 877.95 770.92 877.87 766.51
  Q 877.37 735.82 877.67 576.00
  Q 877.69 565.18 884.98 561.72
  C 892.84 558.00 904.20 560.32 907.12 569.77
  Q 907.90 572.30 907.89 580.30
  Q 907.80 643.34 907.82 791.50
  Q 907.82 798.03 907.52 798.96
  C 905.32 805.63 896.31 807.43 890.20 808.11
  Q 813.72 816.69 737.76 838.95
  C 708.87 847.41 680.39 857.88 652.98 869.00
  C 634.44 876.52 614.02 887.22 593.76 897.48
  Q 584.43 902.21 576.78 906.71
  C 560.70 916.15 546.21 924.07 532.18 934.45
  C 522.76 941.41 516.38 947.80 505.79 941.92
  Q 500.63 939.05 490.25 931.28
  C 483.25 926.05 472.45 919.51 463.66 914.75
  Q 407.55 884.39 355.52 863.24
  Q 288.12 835.84 218.46 820.92
  Q 180.50 812.78 131.87 807.29
  Q 124.49 806.45 121.76 804.72
  Q 116.35 801.29 116.36 793.48
  Q 116.56 636.01 116.19 570.28
  Q 116.18 568.40 118.01 566.22
  C 123.13 560.14 129.79 558.24 137.65 561.36
  C 146.57 564.90 145.67 573.41 145.68 581.65
  Q 145.72 680.87 145.69 776.50
  A 0.88 0.88 0.0 0 0 146.44 777.37
  C 147.81 777.57 149.37 777.52 150.72 777.74
  C 169.50 780.88 190.01 783.53 207.17 787.34
  C 217.66 789.66 231.01 792.03 242.70 795.03
  Q 252.97 797.67 261.24 799.66
  C 277.28 803.52 298.02 809.72 310.67 813.62
  Q 343.54 823.76 377.09 837.51
  C 388.22 842.08 402.07 849.15 410.98 852.53
  Q 412.91 853.27 414.56 853.25
  Z
  M 496.60 883.85
  Q 496.65 844.87 496.62 759.57
  C 496.62 756.30 495.90 753.43 494.62 750.63
  C 478.69 715.66 456.32 684.71 428.86 657.14
  Q 403.54 631.71 377.63 612.69
  C 353.54 595.01 326.34 578.99 297.87 566.66
  Q 285.15 561.15 280.06 559.21
  Q 243.12 545.13 203.71 535.95
  A 1.03 1.02 -75.3 0 0 202.49 536.67
  Q 202.34 537.23 202.34 538.50
  Q 202.36 546.76 202.37 726.20
  Q 202.37 728.91 204.86 729.41
  Q 210.56 730.54 213.55 731.26
  Q 243.47 738.39 281.82 751.63
  Q 318.28 764.21 347.78 778.45
  Q 412.95 809.89 467.83 857.69
  Q 482.81 870.74 495.61 884.24
  A 0.57 0.57 0.0 0 0 496.60 883.85
  Z
  M 528.98 883.71
  Q 529.35 883.54 529.70 882.98
  Q 531.83 879.57 534.79 876.80
  C 582.55 832.03 637.40 795.07 697.17 769.74
  Q 736.69 752.99 780.38 740.08
  Q 789.08 737.51 800.23 734.73
  Q 818.76 730.10 820.17 729.64
  Q 822.78 728.77 822.91 726.43
  Q 822.93 725.90 822.92 537.61
  A 1.25 1.24 -6.5 0 0 821.39 536.40
  Q 779.00 546.00 741.47 560.77
  C 711.32 572.63 682.73 587.17 657.38 605.14
  Q 612.01 637.31 575.55 679.54
  Q 548.63 710.73 530.13 748.65
  Q 527.27 754.50 527.21 760.77
  C 526.83 798.49 527.34 841.40 527.69 882.89
  A 0.91 0.91 0.0 0 0 528.98 883.71
  Z"
/>
<path fill="#ffffff" d="
  M 496.60 883.85
  A 0.57 0.57 0.0 0 1 495.61 884.24
  Q 482.81 870.74 467.83 857.69
  Q 412.95 809.89 347.78 778.45
  Q 318.28 764.21 281.82 751.63
  Q 243.47 738.39 213.55 731.26
  Q 210.56 730.54 204.86 729.41
  Q 202.37 728.91 202.37 726.20
  Q 202.36 546.76 202.34 538.50
  Q 202.34 537.23 202.49 536.67
  A 1.03 1.02 -75.3 0 1 203.71 535.95
  Q 243.12 545.13 280.06 559.21
  Q 285.15 561.15 297.87 566.66
  C 326.34 578.99 353.54 595.01 377.63 612.69
  Q 403.54 631.71 428.86 657.14
  C 456.32 684.71 478.69 715.66 494.62 750.63
  C 495.90 753.43 496.62 756.30 496.62 759.57
  Q 496.65 844.87 496.60 883.85
  Z"
/>
<path fill="#ffffff" d="
  M 528.98 883.71
  A 0.91 0.91 0.0 0 1 527.69 882.89
  C 527.34 841.40 526.83 798.49 527.21 760.77
  Q 527.27 754.50 530.13 748.65
  Q 548.63 710.73 575.55 679.54
  Q 612.01 637.31 657.38 605.14
  C 682.73 587.17 711.32 572.63 741.47 560.77
  Q 779.00 546.00 821.39 536.40
  A 1.25 1.24 -6.5 0 1 822.92 537.61
  Q 822.93 725.90 822.91 726.43
  Q 822.78 728.77 820.17 729.64
  Q 818.76 730.10 800.23 734.73
  Q 789.08 737.51 780.38 740.08
  Q 736.69 752.99 697.17 769.74
  C 637.40 795.07 582.55 832.03 534.79 876.80
  Q 531.83 879.57 529.70 882.98
  Q 529.35 883.54 528.98 883.71
  Z"
/>
</svg>
