<?xml version="1.0" encoding="UTF-8" standalone="no"?>
<!DOCTYPE svg PUBLIC "-//W3C//DTD SVG 1.1//EN" "http://www.w3.org/Graphics/SVG/1.1/DTD/svg11.dtd">
<svg xmlns="http://www.w3.org/2000/svg" version="1.1" viewBox="0.00 0.00 721.00 272.00">
<path fill="#000000" d="
  M 163.44 85.57
  Q 164.03 85.24 164.56 85.26
  C 176.44 85.70 181.21 97.40 179.05 107.75
  C 175.91 122.79 163.64 134.41 148.83 137.88
  A 0.26 0.26 0.0 0 0 148.78 138.37
  Q 149.79 138.84 151.51 138.83
  C 176.08 138.62 195.69 124.03 205.37 101.65
  C 210.80 89.08 211.74 72.06 201.83 61.42
  C 196.75 55.97 189.63 54.43 183.05 57.84
  C 181.50 58.64 180.44 60.05 179.11 60.82
  A 0.25 0.25 0.0 0 1 178.77 60.46
  Q 184.44 51.69 194.94 53.09
  C 205.95 54.55 212.82 66.64 213.87 77.20
  Q 215.67 95.20 205.85 111.35
  C 197.74 124.68 185.25 135.78 169.74 139.56
  A 0.31 0.31 0.0 0 0 169.79 140.17
  C 187.01 141.37 204.82 137.45 218.76 126.41
  C 239.15 110.27 250.60 84.60 246.84 58.39
  Q 245.43 48.61 240.40 40.71
  Q 233.29 29.56 220.41 29.48
  A 0.29 0.29 0.0 0 1 220.13 29.21
  L 220.13 29.20
  A 0.28 0.28 0.0 0 1 220.39 28.91
  Q 228.24 28.35 231.93 29.77
  C 250.30 36.83 254.11 61.40 252.01 78.53
  C 248.59 106.36 227.42 132.60 200.35 140.94
  A 0.16 0.16 0.0 0 0 200.33 141.24
  Q 200.95 141.56 201.26 141.56
  C 212.11 141.49 217.31 142.10 225.12 139.83
  Q 248.31 133.11 262.60 115.38
  C 270.97 104.99 276.01 93.00 279.15 79.71
  Q 279.39 78.72 285.07 51.79
  C 288.32 36.37 295.63 15.68 313.92 13.32
  A 0.27 0.27 0.0 0 1 314.03 13.85
  C 300.12 18.20 293.80 33.18 290.75 46.26
  Q 288.45 56.14 285.54 72.53
  Q 284.08 80.78 281.65 88.94
  C 274.62 112.52 259.28 130.40 236.38 139.89
  Q 234.06 140.85 231.49 141.26
  A 0.32 0.32 0.0 0 0 231.53 141.90
  Q 244.40 142.28 248.25 142.31
  C 255.34 142.38 263.06 140.86 269.94 138.53
  Q 292.86 130.75 311.88 114.36
  C 323.10 104.69 333.11 91.82 338.17 78.28
  C 342.46 66.79 342.99 49.59 334.60 39.33
  Q 329.96 33.67 322.79 31.85
  A 0.23 0.23 0.0 0 1 322.85 31.39
  Q 332.02 31.47 337.98 38.51
  C 345.53 47.43 347.41 59.90 345.14 71.19
  C 341.91 87.29 333.14 100.83 321.42 112.16
  Q 299.41 133.44 270.29 142.20
  A 0.21 0.21 0.0 0 0 270.35 142.62
  Q 276.94 142.66 294.11 142.47
  Q 302.99 142.37 308.31 141.10
  Q 316.23 139.20 321.87 136.58
  Q 361.49 118.22 375.00 76.97
  C 378.39 66.62 379.28 57.02 378.55 46.48
  Q 377.88 36.75 372.56 28.84
  A 0.28 0.28 0.0 0 1 372.97 28.47
  C 379.20 33.89 381.95 42.05 382.54 50.26
  C 383.98 70.49 377.21 90.23 365.55 106.56
  Q 347.79 131.45 318.48 141.69
  A 0.10 0.10 0.0 0 0 318.51 141.89
  Q 328.37 142.42 343.48 141.22
  Q 345.66 141.05 349.42 139.87
  C 369.92 133.47 384.63 118.71 395.35 100.35
  Q 405.43 83.08 417.23 57.47
  C 421.89 47.36 427.34 38.41 434.69 30.21
  Q 441.70 22.38 451.45 19.46
  Q 453.12 18.96 454.29 19.07
  A 0.19 0.19 0.0 0 1 454.33 19.44
  C 445.67 22.02 437.77 30.01 432.92 37.45
  C 429.08 43.34 425.20 50.08 422.36 56.34
  Q 415.34 71.82 409.10 84.86
  Q 401.69 100.37 392.64 112.82
  Q 378.87 131.78 358.05 140.86
  A 0.16 0.16 0.0 0 0 358.12 141.17
  C 365.15 140.99 378.64 141.46 387.69 138.36
  Q 398.95 134.50 406.52 128.76
  Q 420.04 118.52 430.25 103.73
  Q 440.51 88.87 451.66 70.17
  Q 457.87 59.76 466.71 48.71
  Q 476.28 36.74 489.58 27.80
  Q 504.35 17.89 521.31 16.21
  A 0.32 0.31 84.6 0 1 521.65 16.50
  L 521.67 16.76
  A 0.14 0.13 -10.1 0 1 521.56 16.90
  Q 515.75 18.22 514.67 18.65
  Q 493.11 27.17 477.59 43.87
  Q 466.98 55.28 457.96 70.22
  Q 450.73 82.19 441.49 96.50
  Q 431.93 111.33 420.10 123.07
  Q 409.91 133.19 397.65 138.62
  Q 397.40 138.73 397.26 138.94
  A 0.30 0.29 17.7 0 0 397.50 139.40
  C 405.00 139.42 412.47 139.75 419.85 136.83
  C 434.84 130.88 447.67 120.57 458.71 108.96
  Q 472.68 94.27 483.20 82.95
  C 495.73 69.47 509.87 56.78 525.83 46.86
  Q 545.88 34.39 568.26 30.08
  Q 578.41 28.12 590.76 29.08
  A 0.23 0.23 0.0 0 1 590.98 29.31
  L 590.98 29.57
  A 0.03 0.02 -0.0 0 1 590.95 29.59
  Q 587.31 29.64 582.75 30.38
  Q 545.35 36.42 515.94 59.67
  C 498.74 73.26 483.92 89.39 469.25 105.25
  Q 460.78 114.41 451.66 122.40
  Q 439.98 132.63 426.21 138.21
  A 0.12 0.11 -56.1 0 0 426.25 138.43
  Q 438.86 138.11 447.74 137.50
  Q 450.33 137.33 454.08 136.08
  Q 466.83 131.84 476.54 122.80
  C 484.81 115.10 489.50 109.12 498.97 97.97
  C 514.28 79.93 532.19 63.27 556.43 59.57
  Q 584.15 55.34 607.16 71.62
  C 619.37 80.26 631.76 92.73 640.27 100.32
  Q 657.54 115.73 680.50 122.44
  Q 694.66 126.58 709.17 124.59
  A 0.22 0.22 0.0 0 1 709.31 124.99
  Q 707.57 126.04 704.78 126.56
  C 679.46 131.29 655.49 120.60 636.70 104.36
  C 626.61 95.63 614.93 83.37 602.87 75.22
  Q 580.14 59.85 553.48 65.30
  C 536.13 68.84 519.25 82.34 507.41 96.16
  Q 495.34 110.23 488.58 118.05
  Q 478.69 129.47 465.79 136.08
  A 0.22 0.22 0.0 0 0 465.90 136.50
  L 511.06 134.38
  A 0.97 0.96 88.2 0 0 511.98 133.39
  Q 511.77 123.51 515.36 113.09
  C 520.15 99.18 532.05 86.93 546.90 83.83
  Q 564.93 80.07 582.05 88.23
  Q 604.11 98.75 617.29 118.95
  Q 622.37 126.75 622.48 135.25
  Q 622.52 137.70 621.22 141.39
  C 618.40 149.46 612.07 157.18 605.04 164.26
  Q 593.26 176.13 579.11 182.31
  Q 568.71 186.86 556.48 186.32
  C 545.20 185.82 536.03 182.02 527.81 174.20
  Q 513.59 160.66 511.99 139.77
  A 1.17 1.17 0.0 0 0 510.74 138.69
  L 472.40 141.55
  A 0.38 0.38 0.0 0 0 472.27 142.27
  C 475.34 143.65 478.42 145.09 481.14 147.15
  Q 491.42 154.96 497.77 162.13
  C 514.09 180.55 530.87 196.20 554.65 202.81
  Q 562.62 205.02 573.15 204.29
  C 593.53 202.86 611.04 188.58 624.35 174.35
  Q 632.68 165.45 640.66 157.73
  Q 653.74 145.07 670.54 139.12
  Q 689.09 132.54 708.51 137.50
  A 0.36 0.35 -77.9 0 1 708.77 137.91
  L 708.77 137.92
  A 0.38 0.37 -80.8 0 1 708.36 138.22
  Q 698.41 136.82 687.00 139.20
  C 668.44 143.08 652.89 152.17 639.94 165.69
  Q 628.58 177.55 616.74 188.72
  Q 612.08 193.11 604.14 198.39
  Q 590.08 207.74 574.32 209.49
  C 552.09 211.95 528.79 200.01 513.00 185.21
  Q 503.26 176.08 499.43 171.90
  C 487.73 159.17 476.35 147.06 459.19 142.82
  Q 454.34 141.62 450.75 141.92
  Q 444.11 142.49 434.28 143.32
  A 0.24 0.23 -36.6 0 0 434.21 143.77
  Q 446.15 148.48 456.67 156.34
  C 470.61 166.74 481.73 177.55 495.92 190.32
  Q 508.90 202.00 522.97 211.25
  Q 551.39 229.94 584.81 234.23
  C 590.65 234.98 595.64 234.70 600.70 234.89
  C 601.99 234.94 605.16 233.88 606.04 234.15
  A 0.25 0.24 41.8 0 1 606.07 234.61
  Q 605.01 235.05 603.56 235.35
  Q 583.73 239.48 563.88 234.53
  Q 537.57 227.97 514.93 211.78
  C 498.57 200.08 488.42 190.39 469.20 172.80
  C 455.81 160.55 441.08 150.41 423.27 144.60
  A 7.79 7.65 -36.8 0 0 420.47 144.22
  L 401.84 145.09
  A 0.26 0.26 0.0 0 0 401.71 145.57
  Q 402.12 145.84 404.65 146.75
  C 419.94 152.23 432.73 164.51 443.19 176.57
  Q 453.67 188.66 463.49 202.00
  Q 470.22 211.15 478.75 220.37
  C 492.74 235.48 510.65 246.92 530.05 252.41
  Q 534.53 253.67 541.80 253.90
  A 0.26 0.25 12.4 0 1 542.03 254.25
  L 541.84 254.69
  A 0.03 0.02 -58.3 0 1 541.82 254.70
  Q 529.34 255.43 519.48 252.40
  C 496.01 245.19 477.07 229.28 462.49 209.60
  C 452.93 196.69 443.97 185.08 433.96 174.04
  Q 419.14 157.71 399.43 149.08
  Q 396.38 147.74 389.20 145.98
  A 2.91 2.72 -37.5 0 0 388.38 145.90
  L 364.60 146.62
  A 0.20 0.20 0.0 0 0 364.48 146.97
  C 365.47 147.78 367.04 147.81 368.21 148.30
  C 385.37 155.44 398.40 168.20 408.66 183.27
  Q 418.31 197.45 429.09 216.08
  Q 438.27 231.94 447.96 241.93
  Q 453.95 248.11 463.07 251.64
  A 0.36 0.36 0.0 0 1 463.28 252.07
  L 463.27 252.09
  A 0.36 0.36 0.0 0 1 462.83 252.34
  Q 455.21 250.37 451.70 248.34
  Q 443.38 243.51 436.89 235.35
  Q 429.59 226.20 422.43 214.08
  C 412.21 196.76 402.35 179.37 387.74 166.08
  Q 373.70 153.31 353.35 148.12
  A 2.56 2.35 -36.1 0 0 352.65 148.04
  L 327.18 148.40
  A 0.29 0.28 -24.5 0 0 326.99 148.90
  Q 327.38 149.24 328.07 149.47
  C 357.98 159.36 379.25 183.20 387.68 213.31
  C 391.11 225.59 391.15 241.39 381.12 250.69
  A 0.21 0.21 0.0 0 1 380.80 250.42
  Q 385.38 243.24 385.82 234.44
  Q 386.29 225.09 384.35 217.38
  C 383.32 213.26 381.43 207.44 379.66 203.55
  Q 360.53 161.40 315.47 150.43
  Q 309.94 149.08 304.40 149.15
  Q 289.64 149.34 281.69 149.58
  A 0.30 0.29 -37.5 0 0 281.61 150.16
  C 310.82 158.68 336.07 180.31 345.18 209.80
  C 348.35 220.09 348.11 233.18 340.73 241.96
  C 336.12 247.44 329.02 250.06 322.15 247.42
  Q 321.77 247.28 321.62 246.92
  A 0.35 0.35 0.0 0 1 322.01 246.45
  C 328.49 247.83 335.36 244.32 338.59 238.57
  C 345.36 226.55 342.16 212.59 336.25 200.73
  C 323.27 174.69 298.21 158.04 270.38 151.16
  Q 264.22 149.63 257.05 149.69
  Q 247.48 149.78 241.76 149.85
  A 0.30 0.30 0.0 0 0 241.67 150.44
  C 263.46 157.38 281.23 172.74 289.23 194.51
  C 290.59 198.22 292.33 204.18 293.13 208.74
  Q 294.95 219.19 296.99 229.00
  C 300.01 243.55 306.23 259.69 322.52 263.44
  A 0.23 0.23 0.0 0 1 322.47 263.89
  C 307.67 263.94 298.44 250.33 294.53 237.73
  Q 292.24 230.39 290.06 217.79
  C 289.10 212.30 287.92 208.11 286.69 202.82
  Q 286.12 200.35 284.88 196.95
  Q 277.18 175.79 257.80 163.18
  Q 244.28 154.39 228.51 150.17
  A 1.63 1.36 50.0 0 0 228.17 150.11
  L 208.58 149.07
  A 0.27 0.27 0.0 0 0 208.47 149.60
  C 234.00 158.83 252.23 181.22 256.47 208.00
  C 258.44 220.43 256.86 234.15 249.65 244.62
  Q 244.05 252.75 235.45 255.34
  Q 230.84 256.73 226.19 255.63
  A 0.31 0.31 0.0 0 1 226.27 255.01
  Q 237.12 255.24 244.06 246.24
  Q 250.43 237.97 251.87 228.62
  Q 254.01 214.72 250.30 201.93
  Q 241.21 170.63 212.59 155.89
  Q 207.05 153.03 198.55 150.44
  Q 193.77 148.97 187.75 148.83
  Q 180.40 148.64 174.00 148.16
  A 0.13 0.12 -31.7 0 0 173.94 148.40
  Q 177.70 149.88 182.44 152.33
  C 202.02 162.42 216.02 182.14 218.96 204.24
  Q 220.25 213.94 216.54 222.48
  C 212.25 232.40 200.74 238.84 190.46 232.79
  Q 187.55 231.07 186.41 228.94
  A 0.27 0.27 0.0 0 1 186.72 228.56
  C 187.29 228.74 188.69 230.11 189.66 230.60
  C 194.22 232.95 200.33 232.75 204.89 229.87
  C 213.07 224.69 215.42 215.18 214.45 205.99
  C 211.91 182.14 195.71 162.66 174.23 153.03
  Q 170.54 151.38 163.84 149.30
  C 158.26 147.57 151.39 147.71 145.14 146.40
  A 0.30 0.30 0.0 0 0 144.78 146.68
  L 144.76 146.94
  A 0.12 0.12 0.0 0 0 144.84 147.05
  C 162.77 153.36 180.77 170.55 177.12 191.45
  Q 175.62 200.00 168.53 204.86
  C 163.96 207.98 157.94 208.38 153.34 205.28
  A 0.32 0.31 71.7 0 1 153.62 204.72
  C 163.74 208.31 172.08 200.15 173.43 190.71
  C 174.85 180.87 169.67 170.35 162.79 163.45
  C 153.50 154.12 140.65 148.12 127.94 145.35
  Q 120.66 143.76 104.36 141.67
  C 70.85 137.37 38.18 132.28 6.62 123.69
  A 1.28 1.28 0.0 0 1 5.66 122.45
  L 5.66 118.06
  A 0.71 0.71 0.0 0 1 6.57 117.38
  Q 24.59 122.72 43.82 126.13
  Q 56.40 128.36 62.27 129.14
  Q 98.47 133.97 124.54 136.05
  Q 129.90 136.48 133.78 136.67
  Q 153.50 137.62 166.91 123.43
  C 173.08 116.90 177.32 107.12 175.50 98.09
  Q 173.38 87.58 163.48 85.85
  A 0.15 0.15 0.0 0 1 163.44 85.57
  Z
  M 522.93 134.66
  C 523.03 153.22 534.92 176.68 556.52 176.59
  C 571.79 176.52 586.79 167.48 596.91 156.56
  C 602.01 151.05 607.92 141.92 607.87 134.21
  C 607.83 126.50 601.83 117.43 596.67 111.97
  C 586.44 101.16 571.34 92.28 556.07 92.38
  C 534.47 92.51 522.83 116.10 522.93 134.66
  Z"
/>
<path fill="#000000" d="
  M 547.99 133.88
  Q 546.95 133.48 544.04 130.75
  C 538.79 125.80 535.58 117.71 540.29 111.26
  C 545.93 103.51 557.23 102.56 565.41 106.46
  Q 577.82 112.36 586.24 124.49
  C 589.42 129.06 591.96 133.38 589.03 139.25
  C 585.43 146.43 579.39 153.20 573.03 158.21
  C 565.03 164.51 555.62 167.61 545.97 162.99
  C 534.69 157.60 536.53 143.85 544.90 137.15
  Q 548.14 134.55 548.15 134.55
  A 0.41 0.41 0.0 0 0 547.99 133.88
  Z"
/>
</svg>
